<svg xmlns="http://www.w3.org/2000/svg" xmlns:xlink="http://www.w3.org/1999/xlink" xml:space="preserve" width="1024mm" height="1024mm" viewBox="0 0 1024 1024"><defs><linearGradient id="b"><stop offset="0" style="stop-color:#0b1014;stop-opacity:1"/><stop offset="1" style="stop-color:#0b1014;stop-opacity:1"/></linearGradient><linearGradient id="a"><stop offset="0" style="stop-color:#de2f2a;stop-opacity:1"/><stop offset="1" style="stop-color:#f95539;stop-opacity:1"/></linearGradient><linearGradient xlink:href="#a" id="d" x1="80.848" x2="123.129" y1="165.763" y2="112.221" gradientUnits="userSpaceOnUse"/><linearGradient xlink:href="#b" id="c" x1="59.234" x2="782.126" y1="984.223" y2="199.218" gradientUnits="userSpaceOnUse"/><linearGradient xlink:href="#a" id="e" x1="67.987" x2="160.307" y1="163.934" y2="76.344" gradientUnits="userSpaceOnUse"/></defs><path d="M0 0h1024v1024H0z" style="fill:url(#c);fill-opacity:1;stroke:none;stroke-width:1.23374"/><g style="fill:url(#d);fill-opacity:1" transform="translate(17.323 -122.275)scale(4.7199)"><path d="M160.225 208.127c2.058-2.39.898-15.327.77-21.811-.01-.502-.012-1.317-.013-1.82-.07-23.917.408-21.651-7.723-21.65-8.052.002-7.335-2.114-7.435 21.96-.085 20.654.015 23.065 2.024 23.55.438.106 1.17.158 1.62.19 2.602.19 6.44.158 9.248.011.45-.023.814-.048.814-.048zm-107.003.157c.844-.4 3.108-2.395 7.012-6.177 3.171-3.071 9.218-8.934 13.439-13.027 9.105-8.833 7.256-8.515 14.134-2.432a103 103 0 0 0 5.928 4.851c.019-.002 4.21 3.032 5.853 4.155.797.544 2.488-.734 2.78-.988.604-.526 18.709-18.296 27.176-26.86 13.628-13.788 23.43-23.777 25.58-25.882 10.217 10.215 2.061 2.035 8.17 8.203 2.729-12.29 3.258-14.227 7.565-30.768-15.673 2.967-18.065 3.468-30.923 5.862 3.668 4.994-.903-1.188 6.676 8.884-21.502 22.332-35.043 35.932-45.28 46.798-1.956 2.077-2.436 2.184-3.729.835-1.402-1.463-13.227-11.605-14.273-12.242-.807-.49-2.06-.453-3.356-.12-2.735.705-6.172 4.028-8.252 5.985-6.316 5.943-18.816 17.783-25.208 25.981-1.999 3.25 1.43 9.45 6.708 6.942m56.43.34.376-.153c2.413-.901 1.681-4.385.653-5.036-.195-.123-.157-.167-.157-.167-1.135-1.054-8.794-1.266-11.15-.366-2.534.967-2.778 4.37-.397 5.523 1.04.504 10.38.677 10.676.198m26.027-.118c1.327-.686 1.361-.99 1.361-12.096 0-13.539.72-12.398-7.813-12.398-8.216 0-7.793-.722-7.796 13.304-.002 12.241-.46 11.567 7.853 11.567 4.386 0 5.83-.085 6.395-.377m-31.58-42.747c2.012-.885 2.866-2.161 6.286-9.396a2499 2499 0 0 1 7.723-16.14c3.31-6.87 2.678-6.905 2.517-8.505s-3.71-4.193-6.127-5.747c-1.645-1.072-5.61-3.522-8.81-5.444-6.467-3.881-6.266-3.676-5.204-5.315.638-.984 3.736-6.038 9.321-15.205 1.39-2.282 1.123-2.419 8.043 4.131 9.851 9.323 10.696 9.503 17.305 3.68 1.256-1.107 5.142-4.443 8.634-7.414 6.971-5.93 6.751-5.716 7.596-7.409 1.87-3.748-1.62-8.203-5.611-7.163-1.731.452-2.45 1.002-8.707 6.666-3.115 2.82-6.244 5.645-6.952 6.278-1.665 1.488-1.57 1.724-5.532-3.845-1.757-2.47-2.944-4.381-3.94-5.959-4.542-7.187-17.94-14.074-26.508-14.575-3.222-.188-6.476.06-10.406.284-11.845.66-13.068 3.293-17.367 8.922-4.3 5.628-2.479 3.344-5.898 7.368-3.42 4.025-6.024 7.853-4.499 10.582 1.07 1.914 2.002 2.555 3.716 2.555 2.935 0 12.519-9.901 15.309-13.758s3.62-4.746 10.41-3.847c6.013.797 5.87.762 5.87 1.424 0 .871-7.025 14.989-8.208 17.371-1.183 2.383-4.543 9.47-4.678 12.304-.233 4.886.197 5.191 20.55 14.57 8.419 3.88 8.085 3.687 8.039 4.612-.057 1.161-10.467 22.323-10.627 24.517-.286 3.907 3.744 6.223 7.756 4.458m-57.414-13.5c2.683-.34 14.725-1.73 18.389-2.122 8.928-.955 10.364-1.698 14.053-7.27 1.98-2.99 6.055-9.54 6.055-9.733 0-.07-1.101-.75-2.447-1.512-3.931-2.224-6.89-4.593-8.205-6.57-.629-.946-3.403 4.125-6.346 11.6-.987 2.509-.733 2.38-5.492 2.77-19.357 1.586-22.447 2.447-23.686 6.6-1.234 4.136 2.206 6.93 7.68 6.237m78.026-74.605c6.844-3.183 6.913-13.756.32-17.091-2.274-1.15-6.718-1.164-9.013-.057-6.729 3.246-7.056 13.782-.34 17.072 2.289 1.122 6.721 1.151 9.033.076" style="fill:url(#e);fill-opacity:1;stroke:none" transform="translate(-16.463 -21.109)scale(1.15708)"/></g></svg>