<?xml version="1.0" encoding="UTF-8" standalone="no"?>
<!-- Created with Inkscape (http://www.inkscape.org/) -->

<svg
   width="1024mm"
   height="1024mm"
   viewBox="0 0 1024 1024"
   version="1.1"
   id="svg1"
   xml:space="preserve"
   sodipodi:docname="bitmap.svg"
   inkscape:export-filename="bitmap.png"
   inkscape:export-xdpi="96"
   inkscape:export-ydpi="96"
   inkscape:version="1.4.2 (ebf0e940d0, 2025-05-08)"
   xmlns:inkscape="http://www.inkscape.org/namespaces/inkscape"
   xmlns:sodipodi="http://sodipodi.sourceforge.net/DTD/sodipodi-0.dtd"
   xmlns:xlink="http://www.w3.org/1999/xlink"
   xmlns="http://www.w3.org/2000/svg"
   xmlns:svg="http://www.w3.org/2000/svg"><sodipodi:namedview
     id="namedview1"
     pagecolor="#ffffff"
     bordercolor="#000000"
     borderopacity="0.25"
     inkscape:showpageshadow="2"
     inkscape:pageopacity="0.0"
     inkscape:pagecheckerboard="0"
     inkscape:deskcolor="#d1d1d1"
     inkscape:document-units="mm"
     inkscape:zoom="0.18800219"
     inkscape:cx="2611.6717"
     inkscape:cy="2406.8869"
     inkscape:window-width="2327"
     inkscape:window-height="1238"
     inkscape:window-x="0"
     inkscape:window-y="0"
     inkscape:window-maximized="1"
     inkscape:current-layer="svg1" /><defs
     id="defs1"><linearGradient
       id="linearGradient11"><stop
         style="stop-color:#0b1014;stop-opacity:1;"
         offset="0"
         id="stop11" /><stop
         style="stop-color:#0b1014;stop-opacity:1;"
         offset="1"
         id="stop12" /></linearGradient><linearGradient
       id="linearGradient8"><stop
         style="stop-color:#de2f2a;stop-opacity:1;"
         offset="0"
         id="stop8" /><stop
         style="stop-color:#f95539;stop-opacity:1;"
         offset="1"
         id="stop9" /></linearGradient><linearGradient
       xlink:href="#linearGradient8"
       id="linearGradient9"
       x1="80.848167"
       y1="165.76266"
       x2="123.12897"
       y2="112.22116"
       gradientUnits="userSpaceOnUse" /><linearGradient
       xlink:href="#linearGradient11"
       id="linearGradient12"
       x1="59.234219"
       y1="984.22327"
       x2="782.12616"
       y2="199.21762"
       gradientUnits="userSpaceOnUse" /><linearGradient
       xlink:href="#linearGradient8"
       id="linearGradient13"
       gradientUnits="userSpaceOnUse"
       x1="67.986748"
       y1="163.93369"
       x2="160.30688"
       y2="76.343941" /></defs><g
     id="layer3"><rect
       style="fill:url(#linearGradient12);fill-opacity:1;stroke:none;stroke-width:1.23374"
       id="rect9"
       width="1024"
       x="-1.4210855e-14"
       y="0"
       height="1024" /></g><g
     id="layer2"><g
       id="g5"
       transform="matrix(4.7198905,0,0,4.7198905,17.322846,-122.27493)"
       style="fill:url(#linearGradient9);fill-opacity:1"><path
         style="fill:url(#linearGradient13);fill-opacity:1;stroke:none"
         d="m 160.22513,208.12696 c 2.05785,-2.38989 0.89804,-15.32718 0.77042,-21.81132 -0.01,-0.50178 -0.0123,-1.31691 -0.0138,-1.8205 -0.0704,-23.91567 0.40826,-21.6505 -7.72264,-21.6488 -8.05162,0.002 -7.33505,-2.11475 -7.43485,21.95943 -0.0856,20.65426 0.0146,23.06559 2.02384,23.55078 0.4376,0.10567 1.16968,0.15738 1.61903,0.18996 2.60286,0.1887 6.43998,0.15749 9.24855,0.0105 0.44982,-0.0235 0.81419,-0.0478 0.81419,-0.0477 z m -107.002631,0.15718 c 0.84347,-0.40076 3.10771,-2.39546 7.011464,-6.17678 3.17113,-3.07168 9.21851,-8.93417 13.43862,-13.02776 9.10545,-8.83248 7.25656,-8.51437 14.13446,-2.43188 3.11728,2.75678 5.92786,4.8516 5.92786,4.8516 0.01888,-0.002 4.209217,3.03186 5.852957,4.15437 0.79677,0.54411 2.48846,-0.73408 2.77944,-0.98745 0.60483,-0.52666 18.7094,-18.29668 27.17658,-26.85995 13.62797,-13.7881 23.42987,-23.77772 25.58092,-25.8821 10.21667,10.21454 2.06048,2.03464 8.16874,8.20305 2.72938,-12.28972 3.25829,-14.2273 7.56514,-30.76861 -15.67263,2.96725 -18.06478,3.46863 -30.92286,5.86257 3.6681,4.99407 -0.90264,-1.18793 6.6762,8.88399 -21.50241,22.33204 -35.04272,35.93179 -45.27943,46.79798 -1.95631,2.07662 -2.43622,2.184 -3.7295,0.83449 -1.40168,-1.46263 -13.226807,-11.60427 -14.273247,-12.24123 -0.806825,-0.49111 -2.060107,-0.45334 -3.355598,-0.11975 -2.73549,0.70439 -6.171975,4.02746 -8.25191,5.98449 -6.31592,5.94271 -18.816271,17.78246 -25.2088,25.98106 -1.998414,3.25064 1.431353,9.44948 6.708934,6.94191 z m 56.430261,0.33922 0.37519,-0.15273 c 2.4135,-0.90104 1.68104,-4.38497 0.65285,-5.03552 -0.1946,-0.12313 -0.15711,-0.16671 -0.15711,-0.16671 -1.13458,-1.05407 -8.79404,-1.26643 -11.1501,-0.36664 -2.53326,0.96746 -2.77755,4.37033 -0.39653,5.5235 1.04033,0.50384 10.37963,0.67716 10.6757,0.19811 z m 26.02623,-0.11754 c 1.32714,-0.68629 1.36129,-0.98973 1.36129,-12.09615 0,-13.53845 0.71898,-12.39765 -7.81348,-12.39765 -8.21606,0 -7.79293,-0.72213 -7.7954,13.30381 -0.002,12.24159 -0.46011,11.56702 7.85249,11.56702 4.38643,0 5.83066,-0.0851 6.3951,-0.37703 z m -31.57933,-42.74697 c 2.01139,-0.88482 2.86509,-2.16109 6.28484,-9.39579 2.05403,-4.34542 4.41511,-9.2698 7.7239,-16.13958 3.30879,-6.86978 2.67795,-6.90516 2.51674,-8.50585 -0.16121,-1.60069 -3.71049,-4.19262 -6.12734,-5.74665 -1.6444,-1.07216 -5.60919,-3.52179 -8.81064,-5.44363 -6.46632,-3.88173 -6.26551,-3.67659 -5.20323,-5.3153 0.63775,-0.98382 3.73633,-6.03847 9.32102,-15.20523 1.38996,-2.281497 1.12335,-2.418437 8.0435,4.13119 9.85076,9.32332 10.69548,9.50297 17.30439,3.68018 1.25637,-1.10693 5.14181,-4.44338 8.63431,-7.41433 6.97084,-5.929857 6.75113,-5.715567 7.59588,-7.408507 1.87047,-3.748549 -1.61975,-8.203829 -5.6115,-7.163119 -1.7309,0.45128 -2.44943,1.00139 -8.70674,6.665889 -3.11521,2.82009 -6.24339,5.64512 -6.9515,6.27785 -1.6652,1.487927 -1.56976,1.724047 -5.53184,-3.84528 -1.7573,-2.470159 -2.94411,-4.380727 -3.94117,-5.958709 -4.54142,-7.187362 -17.93939,-14.074467 -26.507004,-14.575164 -3.222207,-0.188307 -6.476352,0.0594 -10.406533,0.284494 -11.84436,0.66014 -13.067335,3.293 -17.36706,8.92133 -4.299725,5.62833 -2.478618,3.344185 -5.89812,7.36855 -3.419502,4.024365 -6.023404,7.852419 -4.498184,10.581326 1.07025,1.9149 2.00143,2.55534 3.715374,2.55534 2.9349,0 12.519182,-9.901339 15.30888,-13.758336 2.789698,-3.856997 3.62036,-4.74599 10.41008,-3.84623 6.01375,0.79692 5.86966,0.76197 5.86966,1.42375 0,0.87128 -7.023938,14.988496 -8.20693,17.371436 -1.182992,2.38294 -4.5434,9.4692 -4.67863,12.30313 -0.23315,4.88597 0.19759,5.19137 20.550037,14.57007 8.41892,3.87956 8.08466,3.68779 8.03915,4.61222 -0.0572,1.16157 -10.466745,22.32266 -10.62721,24.51666 -0.28574,3.90697 3.74374,6.22323 7.75587,4.45829 z M 46.685071,152.25904 c 2.682624,-0.33997 14.724452,-1.72929 18.388542,-2.12158 8.92856,-0.95591 10.36488,-1.69895 14.05356,-7.27019 1.97989,-2.99036 6.05478,-9.54104 6.05478,-9.73351 0,-0.0697 -1.10133,-0.74982 -2.4474,-1.5114 -3.93074,-2.22396 -6.88915,-4.5931 -8.20407,-6.56994 -0.62927,-0.94605 -3.4038,4.12503 -6.34623,11.59919 -0.98774,2.50899 -0.73346,2.38071 -5.49189,2.77058 -19.357377,1.58598 -22.44756,2.44692 -23.686375,6.59917 -1.234173,4.1367 2.206151,6.93126 7.679083,6.23768 z M 124.71092,77.653834 c 6.84379,-3.183126 6.91309,-13.755748 0.31956,-17.091018 -2.27332,-1.149937 -6.71734,-1.1637 -9.01284,-0.05652 -6.72852,3.245345 -7.05551,13.781777 -0.33989,17.07205 2.28923,1.121593 6.72134,1.150742 9.03317,0.07549 z"
         id="path5"
         transform="matrix(1.1570771,0,0,1.1570771,-16.462771,-21.108561)" /></g></g></svg>
