<svg xmlns="http://www.w3.org/2000/svg" width="500" height="500" fill="none" viewBox="0 0 500 500"><g clip-path="url(#a)"><path fill="#9a8b8b" d="M261.149-431.154h-17.146c-26.305 1.009-38.715 30.74-44.756 50.646-.031 16.542-.209 39.103-.929 43.425-1.127 6.764-45.357 39.881-61.607 44.4-4.554 1.264-10.778 2.365-17.988 3.652-18.61 3.307-44.105 7.838-59.062 18.894-20.56 15.195-34.89 41.271-34.89 55.166 0 8.339.295 26.282.557 42.117.187 11.714.36 21.961.36 25.488 0 2.384-1.483 6.793-3.931 14.094C15.167-113.632 1.46-72.782.104-15.776c-.138 5.79-5.062 11.859-12.51 21.038-11.978 14.775-30.084 37.1-44.228 77.274-2.793 7.938-5.321 16.177-7.991 24.907-10.608 34.652-22.63 73.915-57.276 110.035l-.488.514-.69.047c-.188.013-18.311 1.503-30.436 14.502-5.271 5.645-15.303 11.625-25.001 17.415-10.895 6.503-23.249 13.873-24.409 18.76-.156.675-.071 1.229.286 1.789 3.668 5.761 6.178 8.189 14.726 7.382 9.047-.861 34.058-14.582 37.409-18.35 0 0-1.062 2.242-4.488 7.666-.609 1.883-7.504 23.293-11.863 34.192l-1.048 2.607c-4.802 11.957-17.55 43.722-17.55 50.614 0 3.313 2.034 5.517 4.042 5.983 2.325.521 9.591-2.964 9.591-2.964-.036.104-3.07 10.651-3.604 15.014-.265 2.247.426 4.324 1.959 5.845 1.791 1.763 4.503 2.575 7.406 2.168 4.624-.608 8.98-11.564 9.924-14.735 0 0-1.821 13.811 1.984 15.319 5.552 2.204 8.604-1.025 9.683-2.56 6.115-8.737 15.096-31.22 16.029-34.472l.402-1.135c3.524-12.189 10.977-22.536 10.977-22.536-1.706 4.563-12.862 41.821-12.702 45.188.288.921.839 1.674 1.595 2.018.833.396 1.972.327 3.204-.199 2.433-1.045 10.982-14.789 13.789-19.306l.907-1.447c2.024-3.25 13.153-28.642 14.906-33.457l.793-2.155c2.6-7.021 10.518-28.398 10.518-34.223 0-7.456 12.112-44.3 13.44-46.952 4.355-8.707 24.06-33.099 46.872-61.348 25.513-31.588 54.434-67.389 63.7-83.977C54.035 59.498 57.514 34.87 59.19 23.035c.252-1.741.465-3.237.66-4.447.345-2.041 2.088-5.146 4.977-10.29 5.896-10.509 15.784-28.104 23.854-54.795 8.745-28.938 8.072-42.177 7.98-27.364l.253 1.515c.438 14.64 28.326 71.964 38.723 89.702 3.63 6.183 1.148 79.167-1.02 87.85-.732 2.945-2.723 9.3-5.234 17.343-5.655 18.094-14.198 45.435-14.198 52.865 0 10.008-7.087 77.604-8.62 82.188-1.255 5.54-5.205 141.333-4.779 165.033.943 53.019 10.164 109.257 18.159 130.953 8.599 23.341 10.924 50.592 11.074 56.612.187 7.525 2.293 16.426 3.842 22.925.946 4.023 1.641 6.934 1.641 8.485 0 1.117-.933 6.19-3.035 17.578-4.632 25.112-13.266 71.872-12.196 84.899 4.68 57.102 15.744 88.575 24.634 113.865 2.577 7.337 5.008 14.254 6.974 20.973 8.726 29.926 24.432 111.565 24.432 121.095 0 1.55.013 3.3.032 5.16.124 13.85.036 23.86-2.321 26.5-5.956 5.41-5.448 19.19-3.976 22.39l.151.5c.776 5.41-4.17 14.86-11.493 21.97-3.799 3.7-6.188 9.25-8.709 15.11-4.618 10.73-9.853 22.87-25.246 30.6-1.053.52-1.771 1.66-2.13 3.39-.849 4.07.626 9.93 2.414 12.07 4.52 2.65 78.534 4.46 90.616.65 9.64-3.05 9.866-27.63 7.289-40.54-2.48-12.37-5.521-34.39-5.521-39.94l.171-.76c2.794-6.15 1.965-18.33-1.847-27.14l-.178-.4.036-.45c.134-2.01.369-8.84.69-18.29 1.021-30.113 2.918-86.164 5.755-96.561 3.513-12.875 15.214-93.204 11.514-138.837-.458-5.599-6.224-38.929-11.806-71.155-5.204-30.08-10.124-58.501-10.422-62.693-.229-3.213-.146-7.059-.053-11.944.104-5 .231-11.226.046-18.745 0-2.578 1.854-15.483 5.126-38.069 4.582-31.646 10.861-74.971 10.861-86.219 0-11.69 5.454-56.923 9.438-89.938 2.205-18.247 4.107-34.008 4.107-36.128 0-4.323 8.788-45.593 8.788-45.593s8.919 41.479 8.919 45.593c0 2.12 1.901 17.881 4.101 36.128 3.99 33.017 9.443 78.248 9.443 89.938 0 11.248 6.278 54.57 10.86 86.219 3.275 22.586 5.127 35.491 5.127 38.026-.186 7.563-.058 13.788.046 18.788.101 4.887.177 8.731-.05 11.944-.299 4.192-5.219 32.613-10.426 62.693-5.575 32.228-11.344 65.558-11.798 71.155-3.701 45.633 7.998 125.962 11.509 138.837 2.831 10.396 4.736 66.446 5.756 96.561.323 9.45.551 16.28.697 18.29l.033.45-.185.4c-3.813 8.81-4.635 20.99-1.837 27.14l.159.76c0 5.55-3.039 27.57-5.516 39.94-2.581 12.91-2.355 37.49 7.287 40.54 12.087 3.82 86.101 2 90.813-.83 1.586-1.96 3.063-7.82 2.216-11.89-.354-1.73-1.074-2.87-2.123-3.39-15.403-7.73-20.625-19.88-25.243-30.6-2.525-5.87-4.919-11.41-8.715-15.11-7.324-7.11-12.271-16.56-11.494-21.97l.149-.51c1.476-3.19 1.979-16.97-3.832-22.24-2.496-2.79-2.594-12.8-2.457-26.64.012-1.87.03-3.61.03-5.16 0-9.53 15.706-91.171 24.431-121.097 1.959-6.719 4.394-13.636 6.968-20.973 8.894-25.29 19.953-56.765 24.638-113.865 1.067-13.027-7.565-59.787-12.2-84.899-2.101-11.388-3.025-16.461-3.025-17.578 0-1.553.685-4.462 1.638-8.485 1.538-6.499 3.646-15.398 3.842-22.926.15-6.021 2.473-33.271 11.073-56.611 7.999-21.696 17.21-77.936 18.156-130.953.419-23.7-3.524-159.493-4.8-165.112-1.514-4.505-8.598-72.101-8.598-82.108 0-7.431-8.543-34.771-14.205-52.865-2.507-8.042-4.494-14.396-5.229-17.343-2.168-8.684-4.647-81.667-1.028-87.85 10.398-17.737 37.638-76.143 38.087-90.79l.036-.45c-.089-14.8-.757-1.55 7.984 27.388 8.077 26.69 17.952 44.286 23.853 54.795 2.895 5.144 4.641 8.249 4.98 10.29.199 1.21.416 2.706.658 4.446 1.678 11.836 5.152 36.465 19.232 61.65 9.264 16.589 38.185 52.389 63.701 83.978 22.815 28.249 42.517 52.641 46.877 61.348 1.318 2.651 13.438 39.496 13.438 46.952 0 5.823 7.913 27.2 10.518 34.223l.787 2.155c1.756 4.815 12.879 30.208 14.905 33.457l.907 1.447c2.81 4.517 11.359 18.261 13.792 19.306 1.235.526 2.372.596 3.204.199.753-.344 1.304-1.098 1.635-2.228.117-3.157-11.036-40.417-12.748-44.979l5.364 6.668c1.717 5.893 6.018 17.003 6.018 17.003.935 3.252 9.914 25.732 16.032 34.472 1.075 1.533 3.893 4.045 9.68 2.56 3.218-.819 2.606-13.595 2.606-13.595.943 3.182 4.681 12.401 9.299 13.011 2.922.406 5.618-.405 7.412-2.168 1.53-1.521 2.229-3.598 1.953-5.845-.531-4.361-3.567-14.908-3.598-15.014 0 0 7.253 3.485 9.591 2.964 2.009-.468 4.045-2.67 4.045-5.983 0-6.894-12.754-38.657-17.557-50.614l-1.045-2.607c-4.354-10.899-11.254-32.31-11.862-34.192-3.498-2.15-4.484-7.666-4.484-7.666 3.345 3.768 28.358 17.488 37.405 18.35 8.548.821 11.061-1.621 14.726-7.382.357-.56.439-1.114.281-1.789-1.155-4.887-13.51-12.257-24.407-18.76-9.697-5.79-19.724-11.771-25.001-17.415-12.161-13.035-30.248-14.489-30.425-14.502l-.702-.048-.486-.513c-34.645-36.12-46.661-75.383-57.271-110.035-2.679-8.73-5.201-16.97-7.994-24.907-14.144-40.175-32.25-62.5-44.234-77.274-7.448-9.18-12.367-15.249-12.509-21.038-1.353-57.006-15.063-97.857-21.645-117.496-2.453-7.301-3.935-11.71-3.935-14.094 0-3.526.172-13.773.363-25.488.259-15.834.548-33.777.548-42.117 0-13.894-14.324-39.971-34.883-55.166-14.955-11.056-40.451-15.587-59.068-18.894-7.205-1.287-13.429-2.388-17.984-3.652-15.712-4.366-56.743-37.146-57.951-44.4-.771-4.587-.921-29.716-.935-46.393-6.347-19.76-18.793-46.716-43.818-47.677"/><path fill="#cec9c9" d="M209.386 155.264c-8.741-17.491-37.966-30.583-55.455-23.291-17.484 7.286-28.954 49.458-28.231 76.423 7.29-24.78 35.583-44.389 83.686-53.132M109.515 304.064c-3.043 6.079-2.756 105.255 1.14 114.003 4.864-23.319 18.854-53.635 14.976-63.349-3.888-9.728-12.231-58.422-16.116-50.654M166.519 337.117c-3.291-9.044-34.04 21.867-37.012 33.147-6.787 25.742-17.59 71.397-4.962 151.094 10.724 67.677 7.287 47.729 8.381 98.743 3.278-43.361 14.582-66.461 17.966-78.822-17.433-37.715-9.641-157.512 15.627-204.162"/><path fill="#cec9c9" d="M179.052 321.159c2.273 12.438-49.578 128.855-15.953 224.59 6.797 19.344 24.616 56.188 28.499 58.138-6.84-34.194-1.938-46.504 0-64.983 8.954-86.329-3.421-201.787-12.546-217.745M232.529 291.545c-.97-5.147-39.151 18.562-39.796 27.334-3.413 46.738 17.981 81.871 22.807 188.11 3.157-89.138 37.62-106.026 16.989-215.444M204.137 439.727c-.742-7.975-6.59 102.507-5.623 112.234.974 9.729-1.152 75.207 3.342 66.756 19.386-36.494 9.121-106.027 2.281-178.99M146.838 39.95c-3.927-.395 0 62.55-1.126 70.523-1.127 7.972 18.816-9.044 22.194-10.881 3.373-1.841-14.878-59.031-21.068-59.641M446.679 45.244c-1.543-7.694 12.574 8.21 29.246 6.48 16.676-1.742 56.518 113.547 66.223 129.385-18.064-4.71-92.431-120.796-95.469-135.865M463.922.123c-5.633 1.489-23.795 1.826 27.402 52.098 4.68 4.597.105-59.385-27.402-52.098M391.34 304.064c3.039 6.079 2.759 105.255-1.141 114.003-4.856-23.319-18.849-53.635-14.968-63.349 3.884-9.728 12.227-58.422 16.109-50.654M334.338 337.117c3.292-9.044 34.041 21.867 37.014 33.147 6.784 25.742 17.588 71.397 4.962 151.094-10.722 67.677-7.285 47.729-8.379 98.743-3.279-43.361-14.593-66.461-17.97-78.822 17.438-37.715 9.642-157.512-15.627-204.162"/><path fill="#cec9c9" d="M321.803 321.159c-2.266 12.438 49.588 128.855 15.959 224.59-6.794 19.344-24.625 56.188-28.5 58.138 6.84-34.194 1.937-46.504 0-64.983-8.956-86.329 3.417-201.787 12.541-217.745M268.328 291.545c.974-5.147 39.152 18.562 39.801 27.334 3.412 46.738-17.984 81.871-22.808 188.11-3.16-89.138-37.624-106.026-16.993-215.444M296.721 439.727c.746-7.975 6.594 102.507 5.623 112.234-.969 9.729 1.146 75.207-3.341 66.756-19.383-36.494-9.125-106.027-2.282-178.99M55.612 45.244c1.549-7.694-12.581 8.21-29.246 6.48C9.69 49.983-30.147 165.272-39.856 181.11c18.068-4.71 92.43-120.796 95.468-135.865M38.37.123c5.642 1.489 23.796 1.826-27.405 52.098C6.289 56.818 10.86-7.164 38.37.123M287.13 155.264c8.738-17.491 37.962-30.583 55.452-23.291 17.484 7.286 28.954 49.458 28.23 76.423-7.291-24.78-35.58-44.389-83.682-53.132M349.673 39.95c3.929-.395 0 62.55 1.128 70.523 1.126 7.972-18.816-9.044-22.194-10.881-3.375-1.841 14.876-59.031 21.066-59.641"/><path fill="#cec9c9" d="M79.489-172.916C18.266-121.426 64.914-37.371 52.264 3.441c68.031-65.104 15.077-147.213 27.225-176.357M421.371-172.916c61.221 51.49 14.576 135.545 27.216 176.357-68.02-65.104-15.068-147.213-27.216-176.357"/><path fill="#283fd7" d="M242.659 178.556c-11.667-5.835-117.75.278-127.226 63.685-2.186 14.568 7.288 99.112 16.035 99.84 1.989-40.3 85.512-31.648 111.189-90.322 1.457-16.768 1.457-62.276.002-73.203M253.851 178.556c11.664-5.835 117.751.278 127.227 63.685 2.184 14.568-7.292 99.112-16.034 99.84-1.991-40.3-85.51-31.648-111.191-90.322-1.455-16.768-1.455-62.276-.002-73.203"/><path fill="#cec9c9" d="M236.925-73.808c-23.098-18.603-59.433-45.112-68.011-58.765-18.662-11.754-28.46-5.346-80.165-14.605-3.953 103.53 73.347 145.171 82.927 228.133 23.291-12.203 75.42-73.202 65.249-154.763M232.931 25.207s-39.075 59.074-51.275 69.055c-10.344 8.465 44.771 62.798 49.91 72.175 5.142 9.371 8.562-129.042 1.365-141.23M259.583-73.808c23.104-18.603 59.438-45.112 68.016-58.765 18.661-11.754 28.456-5.346 80.163-14.605 3.957 103.53-73.349 145.171-82.922 228.133-23.295-12.203-75.42-73.202-65.257-154.763M263.579 25.207s39.076 59.074 51.277 69.055c10.347 8.465-44.772 62.798-49.911 72.175-5.145 9.371-8.561-129.042-1.366-141.23"/></g><defs><clipPath id="a"><path fill="#fff" d="M-203-564h906.562v1704.54H-203z"/></clipPath></defs></svg>