<svg xmlns="http://www.w3.org/2000/svg" width="633" height="633" fill="none" viewBox="0 0 633 633"><g clip-path="url(#a)"><path fill="#9a8b8b" d="M327.149 25.846h-17.146c-26.305 1.009-38.715 30.74-44.756 50.646-.031 16.542-.209 39.103-.929 43.425-1.127 6.764-45.357 39.881-61.607 44.4-4.554 1.264-10.778 2.365-17.988 3.652-18.61 3.307-44.105 7.838-59.062 18.894-20.56 15.195-34.89 41.271-34.89 55.166 0 8.339.295 26.282.557 42.117.187 11.714.36 21.961.36 25.488 0 2.384-1.483 6.793-3.931 14.094-6.59 19.64-20.297 60.49-21.653 117.496-.138 5.79-5.062 11.859-12.51 21.038-11.978 14.775-30.084 37.1-44.228 77.274-2.793 7.938-5.321 16.177-7.991 24.907-10.608 34.652-22.63 73.915-57.276 110.035l-.488.514-.69.047c-.188.013-18.311 1.503-30.436 14.502-5.271 5.645-15.303 11.625-25.001 17.415-10.895 6.503-23.249 13.873-24.409 18.76-.156.675-.071 1.229.286 1.789 3.668 5.761 6.178 8.189 14.726 7.382 9.047-.861 34.058-14.582 37.409-18.35 0 0-1.062 2.242-4.488 7.666-.61 1.883-7.504 23.293-11.863 34.192l-1.048 2.607c-4.802 11.957-17.55 43.722-17.55 50.614 0 3.313 2.034 5.517 4.042 5.983 2.325.521 9.591-2.964 9.591-2.964-.036.104-3.07 10.651-3.604 15.014-.265 2.247.426 4.324 1.959 5.845 1.791 1.763 4.503 2.575 7.406 2.168 4.624-.608 8.98-11.564 9.924-14.735 0 0-1.821 13.811 1.984 15.319 5.552 2.204 8.604-1.025 9.683-2.56 6.115-8.737 15.096-31.22 16.029-34.472l.402-1.135c3.524-12.189 10.977-22.536 10.977-22.536-1.706 4.563-12.862 41.821-12.702 45.188.288.921.839 1.674 1.595 2.018.833.396 1.972.327 3.204-.199 2.433-1.045 10.982-14.789 13.789-19.306l.907-1.447c2.024-3.25 13.153-28.642 14.906-33.457l.793-2.155c2.6-7.021 10.518-28.398 10.518-34.223 0-7.456 12.112-44.3 13.44-46.952 4.355-8.707 24.06-33.099 46.872-61.348 25.513-31.588 54.434-67.389 63.7-83.977 14.073-25.187 17.552-49.814 19.229-61.65.252-1.741.465-3.237.661-4.447.344-2.041 2.087-5.146 4.976-10.29 5.896-10.509 15.784-28.104 23.854-54.795 8.745-28.938 8.072-42.177 7.981-27.364l.252 1.515c.438 14.641 28.326 71.964 38.723 89.702 3.63 6.183 1.148 79.167-1.02 87.85-.732 2.945-2.723 9.3-5.234 17.343-5.655 18.094-14.198 45.435-14.198 52.865 0 10.008-7.087 77.604-8.62 82.188-1.255 5.54-5.205 141.333-4.779 165.033.943 53.019 10.164 109.257 18.159 130.955 8.599 23.34 10.924 50.59 11.074 56.61.187 7.52 2.293 16.43 3.842 22.92.946 4.03 1.641 6.94 1.641 8.49 0 1.12-.933 6.19-3.035 17.58-4.632 25.11-13.266 71.87-12.196 84.9 4.68 57.1 15.744 88.57 24.634 113.86 2.577 7.34 5.008 14.26 6.974 20.97 8.726 29.93 24.432 111.57 24.432 121.1 0 1.55.013 3.3.032 5.16.124 13.85.036 23.86-2.321 26.5-5.956 5.41-5.448 19.19-3.976 22.39l.151.5c.776 5.41-4.17 14.86-11.493 21.97-3.799 3.7-6.188 9.25-8.709 15.11-4.618 10.73-9.853 22.87-25.246 30.6-1.053.52-1.771 1.66-2.13 3.39-.849 4.07.626 9.93 2.414 12.07 4.52 2.65 78.534 4.46 90.616.65 9.64-3.05 9.866-27.63 7.289-40.54-2.48-12.37-5.521-34.39-5.521-39.94l.171-.76c2.794-6.15 1.965-18.33-1.847-27.14l-.178-.4.036-.45c.134-2.01.369-8.84.69-18.29 1.021-30.11 2.918-86.16 5.755-96.56 3.513-12.88 15.214-93.21 11.514-138.84-.458-5.6-6.224-38.93-11.806-71.15-5.204-30.08-10.124-58.5-10.422-62.7-.229-3.21-.146-7.06-.053-11.94.104-5 .231-11.23.046-18.75 0-2.57 1.854-15.48 5.126-38.06 4.582-31.65 10.861-74.975 10.861-86.223 0-11.69 5.454-56.923 9.438-89.938 2.205-18.247 4.107-34.008 4.107-36.128 0-4.323 8.788-45.593 8.788-45.593s8.919 41.479 8.919 45.593c0 2.12 1.901 17.881 4.101 36.128 3.99 33.017 9.443 78.248 9.443 89.938 0 11.248 6.278 54.57 10.86 86.223 3.275 22.58 5.127 35.49 5.127 38.02-.186 7.56-.058 13.79.046 18.79.101 4.89.177 8.73-.05 11.94-.299 4.2-5.219 32.62-10.426 62.7-5.575 32.22-11.344 65.55-11.798 71.15-3.701 45.63 7.998 125.96 11.509 138.84 2.831 10.39 4.736 66.44 5.756 96.56.323 9.45.551 16.28.697 18.29l.033.45-.185.4c-3.813 8.81-4.635 20.99-1.837 27.14l.159.76c0 5.55-3.039 27.57-5.516 39.94-2.581 12.91-2.355 37.49 7.287 40.54 12.087 3.82 86.101 2 90.813-.83 1.586-1.96 3.063-7.82 2.216-11.89-.354-1.73-1.074-2.87-2.123-3.39-15.403-7.73-20.625-19.88-25.243-30.6-2.525-5.87-4.919-11.41-8.715-15.11-7.324-7.11-12.271-16.56-11.494-21.97l.149-.51c1.476-3.19 1.979-16.97-3.832-22.24-2.496-2.79-2.594-12.8-2.457-26.64.012-1.87.03-3.61.03-5.16 0-9.53 15.706-91.17 24.431-121.1 1.959-6.72 4.394-13.63 6.968-20.97 8.894-25.29 19.953-56.77 24.638-113.87 1.067-13.02-7.565-59.78-12.2-84.89-2.101-11.39-3.025-16.47-3.025-17.58 0-1.56.685-4.46 1.638-8.49 1.538-6.5 3.646-15.4 3.842-22.92.15-6.02 2.473-33.27 11.073-56.61 7.999-21.7 17.21-77.94 18.156-130.957.419-23.7-3.524-159.493-4.8-165.112-1.514-4.505-8.598-72.101-8.598-82.108 0-7.431-8.543-34.771-14.205-52.865-2.507-8.042-4.494-14.396-5.229-17.343-2.168-8.684-4.647-81.667-1.028-87.85 10.398-17.737 37.638-76.143 38.087-90.789l.036-.451c-.089-14.8-.757-1.549 7.984 27.388 8.077 26.69 17.952 44.286 23.853 54.795 2.895 5.144 4.641 8.249 4.98 10.29.199 1.21.416 2.706.658 4.446 1.678 11.836 5.152 36.465 19.232 61.651 9.264 16.588 38.185 52.388 63.701 83.977 22.815 28.249 42.517 52.641 46.877 61.348 1.318 2.651 13.438 39.496 13.438 46.952 0 5.823 7.913 27.2 10.518 34.223l.787 2.155c1.756 4.815 12.879 30.208 14.905 33.457l.907 1.447c2.81 4.517 11.359 18.261 13.792 19.306 1.235.526 2.372.596 3.204.199.753-.344 1.304-1.098 1.635-2.228.117-3.157-11.036-40.417-12.748-44.979l5.364 6.668c1.717 5.893 6.018 17.003 6.018 17.003.935 3.252 9.914 25.732 16.032 34.472 1.075 1.533 3.893 4.045 9.68 2.56 3.218-.819 2.606-13.595 2.606-13.595.943 3.182 4.681 12.401 9.299 13.011 2.922.406 5.618-.405 7.412-2.168 1.53-1.521 2.229-3.598 1.953-5.845-.531-4.361-3.567-14.908-3.598-15.014 0 0 7.253 3.485 9.591 2.964 2.009-.468 4.045-2.67 4.045-5.983 0-6.894-12.754-38.657-17.557-50.614l-1.045-2.607c-4.354-10.899-11.254-32.31-11.862-34.192-3.498-2.15-4.484-7.666-4.484-7.666 3.345 3.768 28.358 17.488 37.405 18.35 8.548.821 11.061-1.621 14.726-7.382.357-.56.439-1.114.281-1.789-1.155-4.887-13.51-12.257-24.407-18.76-9.697-5.79-19.724-11.771-25.001-17.415-12.161-13.035-30.248-14.489-30.425-14.502l-.702-.048-.486-.513c-34.645-36.12-46.661-75.383-57.271-110.035-2.679-8.73-5.201-16.97-7.994-24.907-14.144-40.175-32.25-62.5-44.234-77.274-7.448-9.179-12.367-15.249-12.509-21.038-1.353-57.006-15.063-97.857-21.645-117.496-2.453-7.301-3.935-11.71-3.935-14.094 0-3.526.172-13.773.363-25.488.259-15.834.548-33.777.548-42.117 0-13.894-14.324-39.971-34.883-55.166-14.955-11.056-40.451-15.587-59.068-18.894-7.205-1.287-13.429-2.388-17.984-3.652-15.712-4.366-56.743-37.146-57.951-44.4-.771-4.587-.921-29.716-.935-46.393-6.347-19.76-18.793-46.716-43.818-47.677"/><path fill="#cec9c9" d="M191.637 209.742c-27.201 35.956-77.263 91.341-83.563 92.309-4.857-1.943-18.95-53.438 6.312-86.479 18.336-23.966 62.671-18.463 77.251-5.83M275.386 612.264c-8.741-17.491-37.966-30.583-55.455-23.291-17.484 7.286-28.954 49.458-28.231 76.423 7.29-24.78 35.583-44.389 83.686-53.132M392.941-.668c1.494-31.72 1.936-55.206-18.271-81.633-19.502-25.492-51.257-24.909-56.51-24.631-5.123-.278-36.188-.861-55.682 24.63C241.924-55.417 242.73-31.563 244.284.987c-4-.382-15.124 4.974-13.609 9.325 1.752 5.076 12.604 45.993 16.367 40.282.69-1.044 1.09-3.296 1.286-6.277 2.948 22.017 15.313 40.445 16.338 47.646 1.646 11.467-.924-59.92 45.335-66.116h17.146c53.546 14.102 42.702 77.735 44.34 66.268 1.018-7.135 14.319-25.44 17.26-47.221.223 1.87.57 3.3 1.071 4.064 3.768 5.709 14.625-35.208 16.374-40.286 1.469-4.223-8.971-9.392-13.251-9.34M441.224 209.742c27.197 35.956 77.264 91.341 83.57 92.309 4.853-1.943 18.938-53.438-6.325-86.479-18.332-23.966-62.669-18.463-77.245-5.83M212.838 496.951c-3.927-.396 0 62.549-1.126 70.522-1.127 7.972 18.816-9.044 22.194-10.881 3.373-1.841-14.878-59.031-21.068-59.641M512.679 502.244c-1.543-7.694 12.574 8.211 29.246 6.481 16.676-1.743 56.518 113.546 66.223 129.384-18.064-4.71-92.431-120.796-95.469-135.865M529.922 457.123c-5.633 1.489-23.795 1.826 27.402 52.098 4.68 4.597.105-59.385-27.402-52.098M574.536 484.079c.224 37.349 7.298 99.771 53.563 158.886 1.622-47.802-36.642-115.95-53.563-158.886"/><path fill="#cec9c9" d="M586.179 476.272c5.994-7.378 69.123 175.414 71.481 183.96 2.353 8.543-12.591 16.057-14.646 10.408-2.053-5.65-20.592-106.553-56.835-194.368M121.612 502.244c1.549-7.694-12.581 8.211-29.246 6.481-16.675-1.743-56.513 113.546-66.222 129.384 18.068-4.71 92.431-120.796 95.468-135.865M104.371 457.123c5.641 1.489 23.795 1.826-27.406 52.098-4.676 4.597-.104-59.385 27.406-52.098M59.76 484.079c-.227 37.349-7.308 99.771-53.568 158.886-1.623-47.802 36.644-115.95 53.568-158.886"/><path fill="#cec9c9" d="M48.115 476.272c-5.99-7.378-69.133 175.414-71.485 183.96-2.354 8.543 12.595 16.057 14.642 10.408 2.06-5.65 20.595-106.553 56.843-194.368M353.13 612.264c8.738-17.491 37.962-30.583 55.452-23.291 17.484 7.286 28.954 49.458 28.23 76.423-7.291-24.78-35.58-44.389-83.682-53.132M415.673 496.951c3.929-.396 0 62.549 1.128 70.522 1.126 7.972-18.816-9.044-22.194-10.881-3.375-1.841 14.876-59.031 21.066-59.641M274.665 75.659c.895-7.152 12.146-22.35 15.05-24.777 2.918-2.422-.956 42.757-4.848 51.016s-11.172 18.468-11.657 19.924c-.488 1.457.485-38.388 1.455-46.163M364.943 75.659c-.884-7.152-12.143-22.35-15.057-24.777-2.911-2.422.963 42.757 4.851 51.016 3.901 8.26 11.17 18.468 11.664 19.924.488 1.457-.494-38.388-1.458-46.163M145.489 284.084c-61.223 51.49-14.575 135.545-27.225 176.357 68.031-65.104 15.077-147.213 27.225-176.357M107.829 316.625c-10.933 5.83-35.711 75.796-26.963 131.184 9.473-77.977 21.859-113.693 26.963-131.184M104.914 364.729c-2.188 6.554-18.945 84.535-2.188 80.896 10.203-5.104 2.188-80.896 2.188-80.896M487.371 284.084c61.221 51.49 14.576 135.545 27.216 176.357-68.02-65.104-15.068-147.213-27.216-176.357M525.032 316.625c10.93 5.83 35.708 75.796 26.963 131.184-9.473-77.977-21.863-113.693-26.963-131.184M527.947 364.729c2.185 6.554 18.944 84.535 2.185 80.896-10.201-5.104-2.185-80.896-2.185-80.896M308.659 635.556c-11.667-5.835-117.75.278-127.226 63.685-2.186 14.568 7.288 99.112 16.035 99.84 1.989-40.3 85.512-31.648 111.189-90.322 1.457-16.768 1.457-62.276.002-73.203"/><path fill="#cec9c9" d="M319.851 635.556c11.664-5.835 117.751.278 127.227 63.685 2.184 14.568-7.292 99.112-16.034 99.84-1.991-40.3-85.51-31.648-111.191-90.322-1.455-16.768-1.455-62.276-.002-73.203"/><path fill="#283fd7" d="M332.818 44.063c0 8.749 4.554 44.2 12.631 56.848 11.169 17.491 50.532 53.934 81.138 69.479-16.031 2.912-45.187 3.883-92.802 24.284-1.945-33.036-5.834-131.179-10.689-147.689 4.855.48 9.722-2.922 9.722-2.922M306.786 44.063c0 8.749-4.556 44.2-12.629 56.848-11.173 17.491-50.527 53.934-81.132 69.479 16.033 2.912 45.174 3.883 92.791 24.284 1.946-33.036 5.841-131.179 10.693-147.689-4.852.48-9.723-2.922-9.723-2.922M304.355 213.144c-7.775-11.664-82.6-42.272-146.238-27.206 77.246.482 58.442 140.2 147.366 181.24 4.857-26.722 5.398-144.26-1.128-154.034"/><path fill="#283fd7" d="M196.978 225.772c-9.719.49-52.475 56.361-48.103 64.618 4.376 8.267 72.88 16.04 80.165 15.55 7.296-.489-20.729-80.726-32.062-80.168M328.502 213.144c7.776-11.664 82.603-42.272 146.239-27.206-77.25.482-58.439 140.2-147.362 181.24-4.862-26.722-5.402-144.26 1.123-154.034"/><path fill="#283fd7" d="M435.88 225.772c9.711.49 52.472 56.361 48.104 64.618-4.377 8.267-72.879 16.04-80.169 15.55s20.734-80.726 32.065-80.168M302.925 383.192c-23.098-18.603-59.433-45.112-68.011-58.765-18.662-11.754-28.46-5.346-80.165-14.605-3.953 103.53 73.347 145.171 82.927 228.133 23.291-12.203 75.42-73.202 65.249-154.763M298.931 482.207s-39.075 59.074-51.275 69.055c-10.344 8.465 44.771 62.798 49.91 72.175 5.142 9.371 8.562-129.042 1.365-141.23M325.583 383.192c23.104-18.603 59.438-45.112 68.016-58.765 18.661-11.754 28.456-5.346 80.163-14.605 3.957 103.53-73.349 145.171-82.922 228.133-23.295-12.203-75.42-73.202-65.257-154.763M329.579 482.207s39.076 59.074 51.277 69.055c10.347 8.465-44.772 62.798-49.911 72.175-5.145 9.371-8.561-129.042-1.366-141.23"/></g><defs><clipPath id="a"><path fill="#fff" d="M-137-107h906.562v1704.54H-137z"/></clipPath></defs></svg>