<svg xmlns="http://www.w3.org/2000/svg" width="500" height="500" fill="none" viewBox="0 0 500 500"><g clip-path="url(#a)"><path fill="#9a8b8b" d="M703.488-301.136c-1.16-4.888-13.513-12.257-24.403-18.76-9.698-5.79-19.73-11.777-25-17.423-12.167-13.021-30.248-14.481-30.429-14.494l-.696-.048-.492-.506c-34.646-36.121-46.663-75.394-57.272-110.041-2.672-8.73-5.192-16.975-7.995-24.907-14.14-40.175-32.25-62.5-44.228-77.278-7.448-9.176-12.371-15.25-12.509-21.035-1.361-57.006-15.063-97.857-21.65-117.493-2.447-7.307-3.931-11.719-3.931-14.097 0-3.526.167-13.773.359-25.488.265-15.834.552-33.771.552-42.117 0-13.894-14.322-39.971-34.883-55.17-14.954-11.046-40.451-15.58-59.072-18.889-7.199-1.287-13.43-2.388-17.979-3.657-15.718-4.361-56.746-37.142-57.953-44.395-.446-2.651-.683-12.151-.809-22.91-8.818 5.954-23.4 12.656-27.344 13.439-4.773.958-19.903 5.352-26.563 6.14l-.003.169c-.234 0-.615-.069-.901-.082-.279.013-.667.082-.897.082v-.169c-6.664-.788-21.793-5.181-26.568-6.14-3.438-.685-14.991-5.882-23.731-11.161-.132 9.801-.365 18.177-.771 20.631-1.132 6.759-45.362 39.886-61.608 44.395-4.559 1.269-10.781 2.37-17.987 3.657-18.612 3.31-44.113 7.843-59.07 18.889-20.557 15.2-34.885 41.276-34.885 55.17 0 8.346.293 26.282.556 42.117.189 11.714.363 21.961.363 25.488 0 2.377-1.485 6.79-3.935 14.097C15.169-683.486 1.461-642.635.105-585.629c-.134 5.785-5.057 11.859-12.509 21.035-11.982 14.777-30.086 37.104-44.232 77.277-2.794 7.934-5.317 16.178-7.99 24.908-10.607 34.647-22.631 73.92-57.273 110.041l-.486.506-.7.048c-.182.013-18.303 1.508-30.433 14.494-5.267 5.646-15.299 11.633-25.001 17.423-10.889 6.503-23.242 13.873-24.404 18.76-.16.675-.073 1.229.282 1.789 3.665 5.761 6.179 8.192 14.728 7.389 9.046-.868 34.059-14.589 37.406-18.357 0 0-1.058 2.243-4.49 7.666-.603 1.884-7.5 23.293-11.862 34.193l-1.046 2.607c-4.798 11.957-17.55 43.722-17.55 50.613 0 3.314 2.036 5.518 4.041 5.984 2.329.521 9.594-2.964 9.594-2.964-.033.104-3.066 10.651-3.599 15.014-.273 2.247.421 4.324 1.956 5.845 1.792 1.763 4.499 2.574 7.406 2.168 4.625-.608 8.982-11.564 9.928-14.735 0 0-1.828 13.81 1.979 15.319 5.55 2.203 8.606-1.025 9.682-2.56 6.115-8.737 15.098-31.22 16.028-34.472l.401-1.135c3.534-12.189 10.982-22.536 10.982-22.536-1.708 4.563-12.862 41.82-12.702 45.188.288.92.839 1.673 1.594 2.018.832.396 1.972.327 3.198-.199 2.437-1.045 10.989-14.789 13.797-19.306l.906-1.447c2.027-3.25 13.152-28.643 14.907-33.457l.789-2.155c2.601-7.021 10.516-28.398 10.516-34.223 0-7.456 12.117-44.3 13.44-46.952 4.356-8.707 24.058-33.099 46.877-61.349 25.51-31.582 54.434-67.391 63.701-83.976 14.076-25.188 17.555-49.811 19.231-61.651.243-1.74.459-3.232.659-4.446.337-2.041 2.08-5.146 4.974-10.293 5.9-10.507 15.782-28.102 23.854-54.792 8.745-28.938 8.079-42.178 7.979-27.364l.252 1.515c.444 14.641 28.329 71.963 38.733 89.705 3.622 6.18 1.141 79.164-1.027 87.846-.732 2.941-2.725 9.301-5.239 17.347-5.646 18.094-14.193 45.431-14.193 52.855 0 10.014-7.086 77.609-8.621 82.193-1.257 5.535-5.208 141.333-4.784 165.033.952 53.019 10.164 109.257 18.159 130.953 8.6 23.34 10.923 50.592 11.077 56.612.191 7.525 2.298 16.426 3.839 22.925.955 4.023 1.643 6.934 1.643 8.485 0 1.117-.928 6.19-3.027 17.578-4.636 25.112-13.272 71.872-12.203 84.899 4.682 57.102 15.747 88.575 24.638 113.865 2.574 7.337 5.006 14.254 6.968 20.973 8.724 29.926 24.434 111.565 24.434 121.098 0 1.546.018 3.294.027 5.162.126 13.841.039 23.851-2.314 26.497-5.953 5.41-5.452 19.188-3.972 22.384l.149.505c.771 5.41-4.174 14.856-11.5 21.973-3.794 3.696-6.187 9.242-8.711 15.111-4.614 10.721-9.849 22.868-25.245 30.593-1.048.521-1.769 1.663-2.126 3.396-.847 4.064.628 9.924 2.409 12.069 4.523 2.646 78.539 4.461 90.619.649 9.645-3.055 9.87-27.633 7.289-40.541-2.476-12.367-5.518-34.395-5.518-39.939l.166-.757c2.794-6.156 1.974-18.335-1.841-27.14l-.184-.405.036-.453c.144-2.007.369-8.837.69-18.289 1.023-30.111 2.932-86.162 5.763-96.559 3.512-12.875 15.209-93.204 11.511-138.837-.462-5.599-6.224-38.929-11.804-71.155-5.205-30.08-10.126-58.501-10.426-62.693-.229-3.213-.15-7.06-.051-11.944.105-5 .234-11.226.047-18.745 0-2.578 1.852-15.483 5.125-38.07 4.585-31.645 10.863-74.97 10.863-86.218 0-11.69 5.455-56.923 9.438-89.938 2.204-18.247 4.109-34.008 4.109-36.128 0-4.323 8.788-45.593 8.788-45.593s8.914 41.479 8.914 45.593c0 2.12 1.908 17.881 4.108 36.128 3.986 33.017 9.443 78.248 9.443 89.938 0 11.248 6.272 54.57 10.858 86.219 3.276 22.586 5.121 35.49 5.121 38.026-.182 7.563-.055 13.788.045 18.788.102 4.887.18 8.73-.045 11.944-.305 4.192-5.216 32.613-10.427 62.693-5.58 32.228-11.344 65.558-11.798 71.155-3.703 45.633 7.999 125.962 11.51 138.837 2.833 10.396 4.735 66.446 5.759 96.559.32 9.452.55 16.282.69 18.289l.036.453-.18.405c-3.814 8.805-4.639 20.982-1.844 27.14l.166.757c0 5.546-3.044 27.572-5.514 39.939-2.583 12.908-2.359 37.486 7.284 40.541 12.083 3.814 86.096 2 90.812-.836 1.589-1.959 3.066-7.818 2.216-11.884-.36-1.732-1.072-2.876-2.121-3.396-15.404-7.725-20.633-19.872-25.247-30.594-2.527-5.868-4.919-11.414-8.714-15.11-7.329-7.115-12.271-16.563-11.497-21.974l.151-.504c1.477-3.196 1.978-16.974-3.835-22.239-2.496-2.791-2.586-12.801-2.457-26.642.015-1.868.029-3.617.029-5.162 0-9.531 15.709-91.172 24.432-121.098 1.962-6.719 4.396-13.636 6.971-20.973 8.888-25.29 19.956-56.765 24.635-113.865 1.066-13.027-7.563-59.787-12.203-84.9-2.097-11.387-3.027-16.46-3.027-17.577 0-1.553.69-4.462 1.643-8.485 1.544-6.5 3.646-15.398 3.839-22.926.159-6.021 2.479-33.271 11.074-56.611 7.999-21.696 17.21-77.936 18.162-130.953.424-23.7-3.526-159.498-4.806-165.112-1.513-4.505-8.6-72.101-8.6-82.114 0-7.425-8.542-34.763-14.197-52.855-2.511-8.046-4.497-14.405-5.231-17.346-2.172-8.684-4.649-81.667-1.027-87.847 10.398-17.741 37.638-76.152 38.082-90.792l.043-.451c-.085-14.803-.764-1.549 7.985 27.388 8.069 26.69 17.953 44.286 23.854 54.792 2.889 5.146 4.639 8.252 4.978 10.293.202 1.214.415 2.706.659 4.447 1.67 11.84 5.157 36.461 19.228 61.65 9.273 16.585 38.186 52.394 63.705 83.977 22.813 28.249 42.517 52.641 46.878 61.348 1.314 2.651 13.433 39.496 13.433 46.952 0 5.823 7.917 27.2 10.518 34.223l.791 2.155c1.754 4.815 12.882 30.208 14.909 33.457l.901 1.447c2.813 4.517 11.359 18.261 13.794 19.306 1.231.526 2.37.596 3.196.199.76-.344 1.309-1.097 1.643-2.228.12-3.157-11.041-40.417-12.748-44.979l5.362 6.668c1.722 5.893 6.022 17.003 6.022 17.003.929 3.252 9.915 25.733 16.029 34.472 1.08 1.533 3.894 4.045 9.682 2.56 3.208-.819 2.599-13.594 2.599-13.594.948 3.181 4.682 12.4 9.307 13.01 2.92.407 5.614-.405 7.407-2.168 1.535-1.521 2.229-3.598 1.953-5.845-.533-4.361-3.565-14.908-3.595-15.014 0 0 7.253 3.485 9.599 2.964 1.998-.468 4.033-2.67 4.033-5.983 0-6.894-12.752-38.657-17.553-50.614l-1.048-2.607c-4.358-10.899-11.255-32.31-11.86-34.192-3.493-2.15-4.484-7.666-4.484-7.666 3.346 3.768 28.358 17.488 37.405 18.356 8.545.819 11.06-1.628 14.726-7.389.353-.556.44-1.111.278-1.786"/><path fill="#cec9c9" d="M183.542 448.353c-4.332-.629-5.354 18.879-5.463 26.884-.107 8.024-8.293 21.034-3.988 26.192 4.307 5.162 16.453 12.304 23.632 21.144 7.164 8.84 17.138 26.466 17.953 19.915.816-6.549 3.378-34.942-.166-42.279-3.548-7.33-15.236-49.451-31.968-51.856M208.957 430.855c-2.495-1.506-10.563-8.311-15.05-11.034-4.498-2.723-9.104 9.135-5.337 11.893 3.763 2.77 20.466 35.61 22.084 39.188 1.601 3.574 2.793-37.317-1.697-40.047M207.286 27.309c-1.041 48.813-27.436 77.291-19.87 132.854-.024-32.804 34.858-49.442 19.87-132.854M135.939.49c-1.569-6.374 7.063 67.417 6.879 74.022-.18 6.598 20.899 12.423 26.504 19.73.739-5.353-3.806-19.423-4.954-24.45-1.152-5.016-20.693-37.764-28.429-69.302M195.762 41.275c.122-9.26-7.833-12.28-16.689-12.401-8.854-.11-15.255 2.716-15.378 11.972-.1 7.775 16.478 47.885 19.456 43.548 2.733-3.982 8.736-23.303 10.352-33.188 1.386-3.5 2.215-7.04 2.259-9.931M318.205 448.353c4.325-.629 5.353 18.879 5.459 26.884.104 8.024 8.296 21.034 3.993 26.192-4.302 5.162-16.461 12.304-23.629 21.144-7.173 8.84-17.142 26.466-17.953 19.915-.824-6.549-3.388-34.942.166-42.279 3.545-7.33 15.231-49.451 31.964-51.856M292.792 430.855c2.486-1.506 10.561-8.311 15.051-11.034 4.487-2.723 9.098 9.135 5.334 11.893-3.761 2.77-20.471 35.61-22.079 39.188-1.607 3.574-2.803-37.317 1.694-40.047M294.464 27.309c1.04 48.813 27.429 77.291 19.865 132.854.028-32.804-34.854-49.442-19.865-132.854M365.81.49c1.563-6.374-7.07 67.417-6.889 74.022.183 6.598-20.896 12.423-26.498 19.73-.739-5.353 3.806-19.423 4.956-24.45C338.53 64.776 358.064 32.028 365.81.49M305.988 41.275c-.122-9.26 7.829-12.28 16.686-12.401 8.849-.11 15.255 2.716 15.378 11.972.1 7.775-16.48 47.885-19.451 43.548-2.737-3.982-8.744-23.303-10.352-33.188-1.392-3.5-2.224-7.04-2.261-9.931M332.372-240.098c8.215-17.026 46.115-150.567 47.052-146.426C412.774-238.533 338.49-92.711 334.376-73.7c-4.125 18.997-1.709 75.57-2.367 80.682-.667 5.119-9.418 4.489-12.396.162-2.968-4.33-24.061-170.971 12.759-247.242"/><path fill="#cec9c9" d="M391.297-262.737c-8.668 55.692-40.211 170.796-44.896 193.154-4.133 19.69-3.698 58.935-3.56 69.133.132 10.203 2.416 17.454 6.061 17.408 1.908-.021 32.315-75.923 36.456-101.104 17.045-52.019 10.004-127.269 5.939-178.591M300.762-157.914c5.787-3.398.378 74.204 1.237 84.395.868 10.19 17.201 98.453-2.514 95.805-19.716-2.66-17.121-64.007-17.361-82.22-.233-18.224 13.574-94.993 18.638-97.98M169.378-240.098c-8.215-17.026-46.114-150.567-47.051-146.426C88.975-238.533 163.257-92.711 167.373-73.7c4.127 18.997 1.71 75.57 2.37 80.682.655 5.119 9.413 4.489 12.388.162 2.97-4.33 24.067-170.971-12.753-247.242"/><path fill="#cec9c9" d="M110.445-262.737c8.668 55.692 40.217 170.796 44.902 193.154 4.134 19.69 3.691 58.935 3.563 69.133-.138 10.203-2.417 17.454-6.063 17.408-1.913-.021-32.313-75.923-36.46-101.104-17.044-52.019-10.004-127.269-5.942-178.591M200.985-157.914c-5.794-3.398-.382 74.204-1.245 84.395-.865 10.19-17.193 98.453 2.518 95.805 19.713-2.66 17.124-64.007 17.357-82.22.241-18.224-13.569-94.993-18.63-97.98"/><path fill="#283fd7" d="M289.713 132.327c-2.55 2.604-20.744 81.351-20.524 95.651.677 45.292 26.05 153.623 26.186 163.828.139 10.192 7.558-32.256 8.161-41.741.6-9.482 19.09-149.121-13.823-217.738M370.896 146.985s-1.351 74.521-4.869 84.036c-3.518 9.535-33.19 120.438-34.556 127.016-1.375 6.577-18.168 59.278-19.037 49.082-.868-10.189 9.043-32.914 10.397-40.225 1.361-7.308 16.169-100.07 18.224-110.297 2.049-10.231 29.841-109.612 29.841-109.612M212.033 132.327c2.546 2.604 20.74 81.351 20.526 95.651-.684 45.292-26.057 153.623-26.188 163.828-.133 10.192-7.56-32.256-8.156-41.741-.609-9.482-19.095-149.121 13.818-217.738M130.847 146.985s1.356 74.521 4.875 84.036c3.516 9.535 33.188 120.438 34.559 127.016 1.369 6.577 18.165 59.278 19.03 49.082.861-10.189-9.038-32.914-10.404-40.225-1.36-7.308-16.162-100.07-18.211-110.297-2.057-10.231-29.849-109.612-29.849-109.612"/><path fill="#283fd7" d="M139.375 98.41c-4.542 12.326-2.282 61.918 6.821 89.74 9.109 27.813 22.938 84.118 27.071 102.396 4.135 18.271 21.832 112.532 23.178 120.57 1.353 8.032 8.623 9.577 8.028-.628-.595-10.207-14.586-54.129-15.18-64.343-.596-10.207-9.69-106.687-16.34-138.877-7.752-37.559-31.431-114.701-33.578-108.857M363.028 98.41c4.542 12.326 2.28 61.918-6.824 89.74-9.109 27.813-22.938 84.118-27.067 102.396-4.13 18.271-21.831 112.532-23.186 120.57-1.348 8.032-8.613 9.577-8.024-.628.594-10.207 14.585-54.129 15.183-64.343.591-10.207 9.689-106.687 16.336-138.877 7.761-37.559 31.434-114.701 33.582-108.857"/></g><defs><clipPath id="a"><path fill="#fff" d="M-203-1133h906.567V570.69H-203z"/></clipPath></defs></svg>