<svg width="261" height="261" viewBox="0 0 261 261" fill="none" xmlns="http://www.w3.org/2000/svg">
<g clip-path="url(#clip0_3_2)">
<path d="M584.488 551.864C583.328 546.976 570.975 539.607 560.085 533.104C550.387 527.314 540.355 521.327 535.085 515.681C522.918 502.66 504.837 501.2 504.656 501.187L503.96 501.139L503.468 500.633C468.822 464.512 456.805 425.239 446.196 390.592C443.524 381.862 441.004 373.617 438.201 365.685C424.061 325.51 405.951 303.185 393.973 288.407C386.525 279.231 381.602 273.157 381.464 267.372C380.103 210.366 366.401 169.515 359.814 149.879C357.367 142.572 355.883 138.16 355.883 135.782C355.883 132.256 356.05 122.009 356.242 110.294C356.507 94.4598 356.794 76.5228 356.794 68.1768C356.794 54.2828 342.472 28.2057 321.911 13.0067C306.957 1.96074 281.46 -2.57323 262.839 -5.88223C255.64 -7.16923 249.409 -8.27025 244.86 -9.53925C229.142 -13.9002 188.114 -46.6812 186.907 -53.9342C186.461 -56.5852 186.224 -66.0852 186.098 -76.8442C177.28 -70.8902 162.698 -64.1882 158.754 -63.4052C153.981 -62.4472 138.851 -58.0532 132.191 -57.2652L132.188 -57.0962C131.954 -57.0962 131.573 -57.1652 131.287 -57.1782C131.008 -57.1652 130.62 -57.0962 130.39 -57.0962V-57.2652C123.726 -58.0532 108.597 -62.4462 103.822 -63.4052C100.384 -64.0902 88.831 -69.2872 80.091 -74.5662C79.959 -64.7652 79.726 -56.3892 79.32 -53.9352C78.188 -47.1762 33.958 -14.0493 17.712 -9.54025C13.153 -8.27125 6.93104 -7.17024 -0.274963 -5.88324C-18.887 -2.57324 -44.388 1.95977 -59.345 13.0058C-79.902 28.2058 -94.23 54.2818 -94.23 68.1758C-94.23 76.5218 -93.937 94.4578 -93.674 110.293C-93.485 122.007 -93.311 132.254 -93.311 135.781C-93.311 138.158 -94.796 142.571 -97.246 149.878C-103.831 169.514 -117.539 210.365 -118.895 267.371C-119.029 273.156 -123.952 279.23 -131.404 288.406C-143.386 303.183 -161.49 325.51 -175.636 365.683C-178.43 373.617 -180.953 381.861 -183.626 390.591C-194.233 425.238 -206.257 464.511 -240.899 500.632L-241.385 501.138L-242.085 501.186C-242.267 501.199 -260.388 502.694 -272.518 515.68C-277.785 521.326 -287.817 527.313 -297.519 533.103C-308.408 539.606 -320.761 546.976 -321.923 551.863C-322.083 552.538 -321.996 553.092 -321.641 553.652C-317.976 559.413 -315.462 561.844 -306.913 561.041C-297.867 560.173 -272.854 546.452 -269.507 542.684C-269.507 542.684 -270.565 544.927 -273.997 550.35C-274.6 552.234 -281.497 573.643 -285.859 584.543L-286.905 587.15C-291.703 599.107 -304.455 630.872 -304.455 637.763C-304.455 641.077 -302.419 643.281 -300.414 643.747C-298.085 644.268 -290.82 640.783 -290.82 640.783C-290.853 640.887 -293.886 651.434 -294.419 655.797C-294.692 658.044 -293.998 660.121 -292.463 661.642C-290.671 663.405 -287.964 664.216 -285.057 663.81C-280.432 663.202 -276.075 652.246 -275.129 649.075C-275.129 649.075 -276.957 662.885 -273.15 664.394C-267.6 666.597 -264.544 663.369 -263.468 661.834C-257.353 653.097 -248.37 630.614 -247.44 627.362L-247.039 626.227C-243.505 614.038 -236.057 603.691 -236.057 603.691C-237.765 608.254 -248.919 645.511 -248.759 648.879C-248.471 649.799 -247.92 650.552 -247.165 650.897C-246.333 651.293 -245.193 651.224 -243.967 650.698C-241.53 649.653 -232.978 635.909 -230.17 631.392L-229.264 629.945C-227.237 626.695 -216.112 601.302 -214.357 596.488L-213.568 594.333C-210.967 587.312 -203.052 565.935 -203.052 560.11C-203.052 552.654 -190.935 515.81 -189.612 513.158C-185.256 504.451 -165.554 480.059 -142.735 451.809C-117.225 420.227 -88.301 384.418 -79.034 367.833C-64.958 342.645 -61.479 318.022 -59.803 306.182C-59.56 304.442 -59.344 302.95 -59.144 301.736C-58.807 299.695 -57.064 296.59 -54.17 291.443C-48.27 280.936 -38.388 263.341 -30.316 236.651C-21.571 207.713 -22.237 194.473 -22.337 209.287L-22.085 210.802C-21.641 225.443 6.24404 282.765 16.648 300.507C20.27 306.687 17.789 379.671 15.621 388.353C14.889 391.294 12.896 397.654 10.382 405.7C4.73602 423.794 -3.81097 451.131 -3.81097 458.555C-3.81097 468.569 -10.897 536.164 -12.432 540.748C-13.689 546.283 -17.64 682.081 -17.216 705.781C-16.264 758.8 -7.05198 815.038 0.943024 836.734C9.54302 860.075 11.866 887.326 12.02 893.346C12.211 900.871 14.318 909.772 15.859 916.271C16.814 920.294 17.502 923.205 17.502 924.756C17.502 925.873 16.574 930.946 14.475 942.334C9.83904 967.446 1.20303 1014.21 2.27203 1027.23C6.95403 1084.33 18.019 1115.81 26.91 1141.1C29.484 1148.43 31.916 1155.35 33.878 1162.07C42.602 1192 58.312 1273.64 58.312 1283.17C58.312 1284.71 58.33 1286.46 58.339 1288.33C58.465 1302.17 58.378 1312.18 56.025 1314.83C50.072 1320.24 50.573 1334.02 52.053 1337.21L52.202 1337.72C52.973 1343.13 48.028 1352.57 40.702 1359.69C36.908 1363.39 34.515 1368.93 31.991 1374.8C27.377 1385.52 22.142 1397.67 6.74603 1405.39C5.69803 1405.91 4.97703 1407.06 4.62003 1408.79C3.77303 1412.85 5.24802 1418.71 7.02902 1420.86C11.552 1423.5 85.568 1425.32 97.648 1421.51C107.293 1418.45 107.518 1393.87 104.937 1380.97C102.461 1368.6 99.419 1346.57 99.419 1341.03L99.585 1340.27C102.379 1334.11 101.559 1321.94 97.744 1313.13L97.56 1312.73L97.596 1312.27C97.74 1310.27 97.965 1303.44 98.286 1293.98C99.309 1263.87 101.218 1207.82 104.049 1197.42C107.561 1184.55 119.258 1104.22 115.56 1058.59C115.098 1052.99 109.336 1019.66 103.756 987.433C98.551 957.353 93.63 928.932 93.33 924.74C93.101 921.527 93.18 917.681 93.279 912.796C93.384 907.796 93.513 901.57 93.326 894.051C93.326 891.473 95.178 878.568 98.451 855.982C103.036 824.336 109.314 781.011 109.314 769.763C109.314 758.073 114.769 712.84 118.752 679.825C120.956 661.578 122.861 645.817 122.861 643.697C122.861 639.374 131.649 598.104 131.649 598.104C131.649 598.104 140.563 639.583 140.563 643.697C140.563 645.817 142.471 661.578 144.671 679.825C148.657 712.842 154.114 758.073 154.114 769.763C154.114 781.011 160.386 824.333 164.972 855.982C168.248 878.568 170.093 891.473 170.093 894.008C169.911 901.571 170.038 907.796 170.138 912.796C170.24 917.683 170.318 921.527 170.093 924.74C169.788 928.932 164.877 957.353 159.666 987.433C154.086 1019.66 148.322 1052.99 147.868 1058.59C144.165 1104.22 155.867 1184.55 159.378 1197.42C162.211 1207.82 164.113 1263.87 165.137 1293.98C165.457 1303.44 165.687 1310.27 165.827 1312.27L165.863 1312.73L165.683 1313.13C161.869 1321.94 161.044 1334.11 163.839 1340.27L164.005 1341.03C164.005 1346.57 160.961 1368.6 158.491 1380.97C155.908 1393.87 156.132 1418.45 165.775 1421.51C177.858 1425.32 251.871 1423.51 256.587 1420.67C258.176 1418.71 259.653 1412.85 258.803 1408.79C258.443 1407.06 257.731 1405.91 256.682 1405.39C241.278 1397.67 236.049 1385.52 231.435 1374.8C228.908 1368.93 226.516 1363.38 222.721 1359.69C215.392 1352.57 210.45 1343.12 211.224 1337.71L211.375 1337.21C212.852 1334.01 213.353 1320.24 207.54 1314.97C205.044 1312.18 204.954 1302.17 205.083 1288.33C205.098 1286.46 205.112 1284.71 205.112 1283.17C205.112 1273.64 220.821 1191.99 229.544 1162.07C231.506 1155.35 233.94 1148.43 236.515 1141.1C245.403 1115.81 256.471 1084.33 261.15 1027.23C262.216 1014.2 253.587 967.444 248.947 942.332C246.85 930.944 245.92 925.871 245.92 924.754C245.92 923.201 246.61 920.292 247.563 916.269C249.107 909.77 251.209 900.871 251.402 893.343C251.561 887.322 253.881 860.072 262.476 836.732C270.475 815.036 279.686 758.796 280.638 705.779C281.062 682.079 277.112 546.281 275.832 540.667C274.319 536.162 267.232 468.566 267.232 458.553C267.232 451.128 258.69 423.79 253.035 405.698C250.524 397.652 248.538 391.293 247.804 388.352C245.632 379.668 243.155 306.685 246.777 300.505C257.175 282.764 284.415 224.353 284.859 209.713L284.902 209.262C284.817 194.459 284.138 207.713 292.887 236.65C300.956 263.34 310.84 280.936 316.741 291.442C319.63 296.588 321.38 299.694 321.719 301.735C321.921 302.949 322.134 304.441 322.378 306.182C324.048 318.022 327.535 342.643 341.606 367.832C350.879 384.417 379.792 420.226 405.311 451.809C428.124 480.058 447.828 504.45 452.189 513.157C453.503 515.808 465.622 552.653 465.622 560.109C465.622 565.932 473.539 587.309 476.14 594.332L476.931 596.487C478.685 601.302 489.813 626.695 491.84 629.944L492.741 631.391C495.554 635.908 504.1 649.652 506.535 650.697C507.766 651.223 508.905 651.293 509.731 650.896C510.491 650.552 511.04 649.799 511.374 648.668C511.494 645.511 500.333 608.251 498.626 603.689L503.988 610.357C505.71 616.25 510.01 627.36 510.01 627.36C510.939 630.612 519.925 653.093 526.039 661.832C527.119 663.365 529.933 665.877 535.721 664.392C538.929 663.573 538.32 650.798 538.32 650.798C539.268 653.979 543.002 663.198 547.627 663.808C550.547 664.215 553.241 663.403 555.034 661.64C556.569 660.119 557.263 658.042 556.987 655.795C556.454 651.434 553.422 640.887 553.392 640.781C553.392 640.781 560.645 644.266 562.991 643.745C564.989 643.277 567.024 641.075 567.024 637.762C567.024 630.868 554.272 599.105 549.471 587.148L548.423 584.541C544.065 573.642 537.168 552.231 536.563 550.349C533.07 548.199 532.079 542.683 532.079 542.683C535.425 546.451 560.437 560.171 569.484 561.039C578.029 561.858 580.544 559.411 584.21 553.65C584.563 553.094 584.65 552.539 584.488 551.864Z" fill="#9A8B8B"/>
<path d="M176.339 -65.3452C180.711 -65.3452 177.818 -37.6652 177.089 -32.5672C176.36 -27.4672 144.295 31.5638 142.105 35.9388C139.915 40.3138 136.272 9.7028 139.915 3.8728C143.559 -1.9612 173.425 -65.3452 176.339 -65.3452Z" fill="#CEC9C9"/>
<path d="M86.2437 -65.3452C81.8677 -65.3452 84.7667 -37.6652 85.4937 -32.5672C86.2217 -27.4672 118.292 31.5638 120.478 35.9388C122.666 40.3138 126.311 9.7028 122.666 3.8728C119.023 -1.9612 89.1607 -65.3452 86.2437 -65.3452Z" fill="#CEC9C9"/>
<path d="M148.663 -51.2672C134.815 -48.2362 118.331 -50.6422 117.277 -50.9002C109.919 -52.7492 132.832 6.42175 132.832 6.42175L133.005 5.49176L133.112 6.05777C133.112 6.05877 155.591 -52.7892 148.663 -51.2672Z" fill="#CEC9C9"/>
<path d="M140.804 46.5288C144.633 43.9038 175.107 11.8508 218.356 31.7078C259.999 50.8218 281.974 123.165 281.439 124.821C280.711 127.07 209.31 168.063 174.327 168.063C153.907 168.063 138.612 156.808 138.612 150.806C138.611 144.806 136.428 49.5308 140.804 46.5288Z" fill="#CEC9C9"/>
<path d="M121.566 46.5288C117.737 43.9038 87.2629 11.8508 44.0179 31.7078C2.37186 50.8218 -19.6001 123.165 -19.0621 124.821C-18.3351 127.07 53.0619 168.063 88.0429 168.063C108.468 168.063 123.756 156.808 123.756 150.806C123.756 144.806 125.945 49.5308 121.566 46.5288Z" fill="#CEC9C9"/>
<path d="M147.553 178.501C138.766 179.903 146.098 207.648 146.824 211.296C147.553 214.936 194.196 214.936 202.209 229.515C210.234 244.089 204.402 213.475 204.402 207.65C204.404 201.817 183.995 172.668 147.553 178.501Z" fill="#CEC9C9"/>
<path d="M145.367 230.972C141.107 231.972 145.367 267.412 148.285 279.072C149.073 282.231 198.57 275.427 202.212 285.631C205.86 275.428 206.587 267.413 206.587 261.586C206.587 255.747 182.538 222.229 145.367 230.972Z" fill="#CEC9C9"/>
<path d="M229.048 272.562C229.048 272.562 226.862 295.883 229.776 298.8C232.696 301.718 252.375 284.952 253.829 280.581C255.288 276.21 265.033 238.422 259.203 245.705C253.376 252.996 248.73 265.279 229.048 272.562Z" fill="#CEC9C9"/>
<path d="M232.099 228.783C231.371 234.618 228.451 253.56 232.099 254.287C235.74 255.02 253.974 229.004 256.161 223.178C258.35 217.346 257.13 212.584 254.942 214.044C252.757 215.5 232.826 222.956 232.099 228.783Z" fill="#CEC9C9"/>
<path d="M226.924 193.637C224.975 197.554 221.16 217.122 229.912 215.665C238.652 214.204 257.527 193.273 256.47 186.635C255.253 179.018 228.386 190.725 226.924 193.637Z" fill="#CEC9C9"/>
<path d="M214.82 165.177C210.618 169.307 218.526 184.132 223.305 182.71C227.535 181.456 259.513 163.796 257.38 155.272C255.544 147.94 215.763 164.25 214.82 165.177Z" fill="#CEC9C9"/>
<path d="M35.7848 272.562C35.7848 272.562 37.9728 295.883 35.0578 298.8C32.1438 301.718 12.4628 284.952 11.0018 280.581C9.54477 276.21 -0.200241 238.422 5.62976 245.705C11.4618 252.996 16.1068 265.279 35.7848 272.562Z" fill="#CEC9C9"/>
<path d="M32.7339 228.783C33.4689 234.618 36.3859 253.56 32.7339 254.287C29.0939 255.02 10.8649 229.004 8.67785 223.178C6.48785 217.346 7.70686 212.584 9.89486 214.044C12.0849 215.5 32.0069 222.956 32.7339 228.783Z" fill="#CEC9C9"/>
<path d="M37.9061 193.637C39.8621 197.554 43.6742 217.122 34.9292 215.665C26.1842 214.204 7.31315 193.273 8.36815 186.635C9.58815 179.018 36.4521 190.725 37.9061 193.637Z" fill="#CEC9C9"/>
<path d="M50.0142 165.177C54.2242 169.307 46.3132 184.132 41.5342 182.71C37.3032 181.456 5.32923 163.796 7.46023 155.272C9.29123 147.94 49.0672 164.25 50.0142 165.177Z" fill="#CEC9C9"/>
<path d="M-20.251 136.696C-12.339 146.136 0.146027 182.979 0.146027 189.982C0.146027 195.814 1.27402 244.839 -4.11398 239.007C-11.613 230.898 -15.978 212.924 -16.906 196.376C-18.287 171.922 -18.124 157.704 -20.251 136.696Z" fill="#CEC9C9"/>
<path d="M117.191 178.501C125.979 179.903 118.649 207.648 117.921 211.296C117.191 214.936 70.5491 214.936 62.5311 229.515C54.5101 244.089 60.3391 213.475 60.3391 207.65C60.3391 201.817 80.7481 172.668 117.191 178.501Z" fill="#CEC9C9"/>
<path d="M119.377 230.972C123.634 231.972 119.377 267.412 116.464 279.072C115.667 282.231 66.1732 275.427 62.5322 285.631C58.8862 275.428 58.1572 267.413 58.1572 261.586C58.1562 255.747 82.2122 222.229 119.377 230.972Z" fill="#CEC9C9"/>
<path d="M185.673 -29.6711C195.454 -29.6711 242.521 -2.70516 247.623 2.39484C252.727 7.49784 218.475 8.95285 215.558 8.95285C212.645 8.95285 189.317 -11.4502 185.673 -17.2802C182.033 -23.1152 180.574 -29.6711 185.673 -29.6711Z" fill="#CEC9C9"/>
<path d="M176.93 -7.06023C179.718 -1.48823 191.509 10.4308 184.947 13.3488C178.388 16.2608 167.458 15.5338 167.458 12.6188C167.458 9.70376 175.471 -9.97123 176.93 -7.06023Z" fill="#CEC9C9"/>
<path d="M248.132 15.9608C279.467 20.3338 333.402 77.9088 337.778 117.261C294.049 116.533 249.587 54.5898 248.132 15.9608Z" fill="#CEC9C9"/>
<path d="M16.6072 15.9608C-14.7248 20.3338 -68.6588 77.9088 -73.0298 117.261C-29.2978 116.533 15.1542 54.5898 16.6072 15.9608Z" fill="#CEC9C9"/>
<path d="M73.675 -29.6711C63.901 -29.6711 16.829 -2.70516 11.732 2.39484C6.62797 7.49784 40.881 8.95285 43.798 8.95285C46.712 8.95285 70.036 -11.4502 73.675 -17.2802C77.324 -23.1152 78.786 -29.6711 73.675 -29.6711Z" fill="#CEC9C9"/>
<path d="M82.4268 -7.06023C79.6398 -1.48823 67.8448 10.4308 74.4018 13.3488C80.9648 16.2608 91.8978 15.5338 91.8978 12.6188C91.8978 9.70376 83.8838 -9.97123 82.4268 -7.06023Z" fill="#CEC9C9"/>
<path d="M244 100.944C244 118.749 231.341 133.675 221.82 143.354C221.348 143.835 220.785 144.217 220.164 144.477C219.542 144.737 218.876 144.871 218.202 144.87C217.201 144.87 216.223 144.573 215.39 144.017C214.556 143.462 213.906 142.672 213.52 141.747C213.133 140.822 213.028 139.803 213.218 138.819C213.408 137.835 213.884 136.929 214.587 136.214C227.724 122.859 233.844 111.652 233.844 100.944C233.844 85.1808 223.611 74.1723 208.961 74.1723C199.435 74.1723 192.4 77.7611 188.054 84.8411C184.605 90.4613 184.066 96.3104 184.062 96.3683C183.964 97.6447 183.387 98.8366 182.448 99.7053C181.509 100.574 180.278 101.055 178.999 101.053C177.719 101.05 176.487 100.564 175.549 99.6916C174.61 98.8192 174.035 97.6245 173.938 96.346C173.934 96.3104 173.396 90.4613 169.946 84.8411C165.599 77.7611 158.566 74.1723 149.04 74.1723C134.389 74.1723 124.157 85.1808 124.157 100.944C124.157 108.053 126.849 115.362 132.379 123.254H144.433L152.857 106.014C152.509 105.232 152.364 104.376 152.434 103.523C152.505 102.67 152.789 101.849 153.26 101.136C153.732 100.422 154.375 99.8393 155.131 99.4411C155.887 99.0428 156.731 98.8419 157.586 98.8571C158.44 98.8723 159.276 99.1031 160.017 99.528C160.759 99.953 161.381 100.558 161.827 101.288C162.273 102.018 162.528 102.849 162.568 103.703C162.608 104.558 162.432 105.409 162.057 106.178L172.43 129.469L179.038 116.38C179.459 115.547 180.1 114.846 180.893 114.354C181.685 113.861 182.597 113.597 183.529 113.589H183.571C184.496 113.589 185.403 113.842 186.195 114.321C186.987 114.8 187.633 115.487 188.064 116.307L191.714 123.253H203.121C203.788 123.253 204.449 123.384 205.065 123.64C205.681 123.895 206.241 124.27 206.713 124.742C207.184 125.215 207.558 125.775 207.814 126.392C208.069 127.01 208.2 127.671 208.2 128.339C208.2 129.007 208.069 129.668 207.814 130.286C207.558 130.903 207.184 131.463 206.713 131.936C206.241 132.408 205.681 132.783 205.065 133.038C204.449 133.294 203.788 133.425 203.121 133.425H188.649C187.724 133.425 186.816 133.172 186.024 132.694C185.232 132.215 184.586 131.529 184.155 130.709L183.661 129.767L176.677 143.604C176.253 144.443 175.605 145.149 174.805 145.642C174.005 146.135 173.084 146.396 172.145 146.396L172.021 146.394C171.061 146.371 170.128 146.075 169.329 145.543C168.53 145.01 167.898 144.261 167.507 143.383L157.205 120.254L152.162 130.575C151.744 131.43 151.095 132.15 150.289 132.654C149.482 133.158 148.551 133.425 147.6 133.425H119.079C118.412 133.425 117.752 133.294 117.135 133.038C116.519 132.783 115.959 132.408 115.488 131.936C115.016 131.463 114.642 130.903 114.387 130.286C114.131 129.668 114 129.007 114 128.339C114 127.671 114.131 127.01 114.387 126.392C114.642 125.775 115.016 125.215 115.488 124.742C115.959 124.27 116.519 123.895 117.135 123.64C117.752 123.384 118.412 123.253 119.079 123.253H120.367C116.093 115.685 114.001 108.329 114.001 100.944C114.001 90.1429 117.541 80.8413 124.241 74.0462C130.627 67.5664 139.435 64 149.04 64C165.832 64 174.514 72.6546 178.841 79.9146C178.895 80.0031 178.948 80.0936 179 80.1842C179.053 80.0936 179.106 80.0031 179.16 79.9146C183.486 72.6546 192.169 64 208.961 64C218.566 64 227.373 67.5674 233.76 74.0462C240.46 80.8413 244 90.1419 244 100.944ZM196.725 152.685L196.609 152.787C190.154 158.458 183.985 163.885 179 169.202C174.017 163.885 167.846 158.46 161.391 152.787C157.953 149.767 154.398 146.644 150.953 143.471C150.464 143.011 149.888 142.653 149.259 142.418C148.631 142.182 147.962 142.074 147.291 142.098C146.621 142.123 145.962 142.281 145.352 142.562C144.743 142.844 144.195 143.244 143.741 143.739C143.287 144.233 142.935 144.813 142.706 145.445C142.477 146.077 142.375 146.748 142.407 147.42C142.438 148.091 142.602 148.75 142.889 149.357C143.176 149.965 143.581 150.509 144.079 150.959C147.613 154.213 151.212 157.376 154.693 160.435C162.647 167.423 170.16 174.026 175.046 180.103L175.061 180.123L175.132 180.205C175.223 180.312 175.317 180.416 175.416 180.516L175.431 180.533C175.551 180.652 175.677 180.762 175.805 180.867L175.816 180.876L175.824 180.881C175.935 180.973 176.051 181.056 176.169 181.135L176.191 181.151C176.303 181.225 176.419 181.296 176.536 181.36C176.657 181.428 176.781 181.49 176.907 181.547L176.994 181.585C177.089 181.626 177.185 181.664 177.283 181.699C177.308 181.708 177.334 181.719 177.359 181.727C177.468 181.765 177.579 181.797 177.689 181.826C177.822 181.862 177.957 181.892 178.092 181.917L178.2 181.936C178.307 181.952 178.415 181.965 178.522 181.977L178.638 181.985C178.754 181.995 178.869 181.999 178.985 181.999L178.998 182H179.004L179.017 181.999C179.279 181.998 179.541 181.977 179.801 181.936C179.837 181.931 179.874 181.923 179.912 181.917C180.16 181.871 180.403 181.808 180.642 181.727C180.669 181.719 180.695 181.707 180.723 181.698C180.819 181.664 180.913 181.627 181.006 181.586L181.098 181.545C181.213 181.493 181.328 181.436 181.44 181.375L181.47 181.358C181.72 181.22 181.956 181.06 182.178 180.881L182.186 180.876C182.32 180.768 182.448 180.654 182.57 180.533C182.576 180.528 182.58 180.521 182.587 180.515C182.685 180.416 182.78 180.311 182.871 180.204L182.941 180.122L182.957 180.102C187.84 174.026 195.354 167.424 203.308 160.436L203.425 160.332C203.926 159.891 204.336 159.356 204.631 158.757C204.925 158.158 205.099 157.506 205.143 156.84C205.186 156.173 205.098 155.505 204.883 154.872C204.669 154.24 204.332 153.656 203.892 153.154C203.452 152.652 202.917 152.242 202.319 151.946C201.721 151.651 201.07 151.477 200.405 151.433C199.739 151.39 199.072 151.478 198.441 151.693C197.809 151.908 197.226 152.246 196.725 152.686V152.685Z" fill="#283FD7"/>
</g>
<defs>
<clipPath id="clip0_3_2">
<rect width="906.567" height="1703.69" fill="white" transform="translate(-322 -280)"/>
</clipPath>
</defs>
</svg>
