<svg xmlns="http://www.w3.org/2000/svg" width="500" height="500" fill="none" viewBox="0 0 500 500"><g clip-path="url(#a)"><path fill="#9a8b8b" d="M701.488 121.864c-1.16-4.888-13.513-12.257-24.403-18.76-9.698-5.79-19.73-11.777-25-17.423-12.167-13.021-30.248-14.481-30.429-14.494l-.696-.048-.492-.506c-34.646-36.121-46.663-75.394-57.272-110.041-2.672-8.73-5.192-16.975-7.995-24.907-14.14-40.175-32.25-62.5-44.228-77.278-7.448-9.176-12.371-15.25-12.509-21.035-1.361-57.006-15.063-97.857-21.65-117.493-2.447-7.307-3.931-11.719-3.931-14.097 0-3.526.167-13.773.359-25.488.265-15.834.552-33.771.552-42.117 0-13.894-14.322-39.971-34.883-55.17-14.954-11.046-40.451-15.58-59.072-18.889-7.199-1.287-13.43-2.388-17.979-3.657-15.718-4.361-56.746-37.142-57.953-44.395-.446-2.651-.683-12.151-.809-22.91-8.818 5.954-23.4 12.656-27.344 13.439-4.773.958-19.903 5.352-26.563 6.14l-.003.169c-.234 0-.615-.069-.901-.082-.279.013-.667.082-.897.082v-.169c-6.664-.788-21.793-5.181-26.568-6.14-3.438-.685-14.991-5.882-23.731-11.161-.132 9.801-.365 18.177-.771 20.631-1.132 6.759-45.362 39.886-61.608 44.395-4.559 1.269-10.781 2.37-17.987 3.657-18.612 3.31-44.113 7.843-59.07 18.889-20.557 15.2-34.885 41.276-34.885 55.17 0 8.346.293 26.282.556 42.117.189 11.714.363 21.961.363 25.488 0 2.377-1.485 6.79-3.935 14.097-6.585 19.636-20.293 60.487-21.649 117.493-.134 5.785-5.057 11.859-12.509 21.035-11.982 14.777-30.086 37.104-44.232 77.277-2.794 7.934-5.317 16.178-7.99 24.908-10.607 34.647-22.631 73.92-57.273 110.04l-.486.507-.7.048c-.182.013-18.303 1.508-30.433 14.494-5.267 5.646-15.299 11.633-25.001 17.423-10.889 6.503-23.242 13.873-24.404 18.76-.16.675-.073 1.229.282 1.789 3.665 5.761 6.179 8.192 14.728 7.389 9.046-.868 34.059-14.589 37.406-18.357 0 0-1.058 2.243-4.49 7.666-.603 1.884-7.5 23.293-11.862 34.193l-1.046 2.607c-4.798 11.957-17.55 43.722-17.55 50.613 0 3.314 2.036 5.518 4.041 5.984 2.329.521 9.594-2.964 9.594-2.964-.033.104-3.066 10.651-3.599 15.014-.273 2.247.421 4.324 1.956 5.845 1.792 1.763 4.499 2.574 7.406 2.168 4.625-.608 8.982-11.564 9.928-14.735 0 0-1.828 13.81 1.979 15.319 5.55 2.203 8.606-1.025 9.682-2.56 6.115-8.737 15.098-31.22 16.028-34.472l.401-1.135c3.534-12.189 10.982-22.536 10.982-22.536-1.708 4.563-12.862 41.82-12.702 45.188.288.92.839 1.673 1.594 2.018.832.396 1.972.327 3.198-.199 2.437-1.045 10.989-14.789 13.797-19.306l.906-1.447c2.027-3.25 13.152-28.643 14.907-33.457l.789-2.155c2.601-7.021 10.516-28.398 10.516-34.223 0-7.456 12.117-44.3 13.44-46.952 4.356-8.707 24.058-33.1 46.877-61.35 25.51-31.581 54.434-67.39 63.701-83.975 14.076-25.188 17.555-49.811 19.231-61.651.243-1.74.459-3.232.659-4.446.337-2.041 2.08-5.146 4.974-10.293 5.9-10.507 15.782-28.102 23.854-54.792 8.745-28.938 8.079-42.178 7.979-27.364l.252 1.515c.444 14.641 28.329 71.963 38.733 89.705 3.622 6.18 1.141 79.164-1.027 87.846-.732 2.94-2.725 9.3-5.239 17.347-5.646 18.094-14.193 45.43-14.193 52.855 0 10.014-7.086 77.609-8.621 82.193-1.257 5.535-5.208 141.333-4.784 165.033.952 53.019 10.164 109.257 18.159 130.953 8.6 23.341 10.923 50.592 11.077 56.612.191 7.525 2.298 16.426 3.839 22.925.955 4.023 1.643 6.934 1.643 8.485 0 1.117-.928 6.19-3.027 17.578-4.636 25.112-13.272 71.872-12.203 84.899 4.682 57.102 15.747 88.575 24.638 113.865 2.574 7.337 5.006 14.254 6.968 20.973 8.724 29.926 24.434 111.565 24.434 121.098 0 1.546.018 3.294.027 5.162.126 13.841.039 23.851-2.314 26.497-5.953 5.41-5.452 19.188-3.972 22.384l.149.505c.771 5.41-4.174 14.856-11.5 21.973-3.794 3.696-6.187 9.242-8.711 15.111-4.614 10.721-9.849 22.868-25.245 30.593-1.048.521-1.769 1.663-2.126 3.396-.847 4.064.628 9.924 2.409 12.069 4.523 2.646 78.539 4.461 90.619.649 9.645-3.055 9.87-27.633 7.289-40.541-2.476-12.367-5.518-34.395-5.518-39.939l.166-.757c2.794-6.156 1.974-18.335-1.841-27.14l-.184-.405.036-.453c.144-2.007.369-8.837.69-18.289 1.023-30.111 2.932-86.162 5.763-96.559 3.512-12.875 15.209-93.204 11.511-138.837-.462-5.599-6.224-38.929-11.804-71.155-5.205-30.08-10.126-58.501-10.426-62.693-.229-3.213-.15-7.059-.051-11.944.105-5 .234-11.226.047-18.745 0-2.578 1.852-15.483 5.125-38.069 4.585-31.646 10.863-74.971 10.863-86.219 0-11.69 5.455-56.923 9.438-89.938 2.204-18.247 4.109-34.008 4.109-36.128 0-4.323 8.788-45.593 8.788-45.593s8.914 41.479 8.914 45.593c0 2.12 1.908 17.881 4.108 36.128 3.986 33.017 9.443 78.248 9.443 89.938 0 11.248 6.272 54.57 10.858 86.219 3.276 22.586 5.121 35.491 5.121 38.026-.182 7.563-.055 13.788.045 18.788.102 4.887.18 8.731-.045 11.944-.305 4.192-5.216 32.613-10.427 62.693-5.58 32.228-11.344 65.558-11.798 71.155-3.703 45.633 7.999 125.962 11.51 138.837 2.833 10.396 4.735 66.446 5.759 96.559.32 9.452.55 16.282.69 18.289l.036.453-.18.405c-3.814 8.805-4.639 20.982-1.844 27.14l.166.757c0 5.546-3.044 27.572-5.514 39.939-2.583 12.908-2.359 37.486 7.284 40.541 12.083 3.814 86.096 2 90.812-.836 1.589-1.959 3.066-7.818 2.216-11.884-.36-1.732-1.072-2.876-2.121-3.396-15.404-7.725-20.633-19.872-25.247-30.594-2.527-5.868-4.919-11.414-8.714-15.11-7.329-7.115-12.271-16.563-11.497-21.974l.151-.504c1.477-3.196 1.978-16.974-3.835-22.239-2.496-2.791-2.586-12.801-2.457-26.642.015-1.868.029-3.617.029-5.162 0-9.531 15.709-91.172 24.432-121.098 1.962-6.719 4.396-13.636 6.971-20.973 8.888-25.29 19.956-56.765 24.635-113.865 1.066-13.027-7.563-59.787-12.203-84.899-2.097-11.388-3.027-16.461-3.027-17.578 0-1.553.69-4.462 1.643-8.485 1.544-6.499 3.646-15.398 3.839-22.926.159-6.021 2.479-33.271 11.074-56.611 7.999-21.696 17.21-77.936 18.162-130.953.424-23.7-3.526-159.498-4.806-165.112-1.513-4.505-8.6-72.101-8.6-82.114 0-7.425-8.542-34.763-14.197-52.855-2.511-8.046-4.497-14.405-5.231-17.346-2.172-8.684-4.649-81.667-1.027-87.847 10.398-17.741 37.638-76.152 38.082-90.792l.043-.451c-.085-14.803-.764-1.549 7.985 27.388 8.069 26.69 17.953 44.286 23.854 54.792 2.889 5.146 4.639 8.252 4.978 10.293.202 1.214.415 2.706.659 4.447 1.67 11.84 5.157 36.46 19.228 61.65 9.273 16.585 38.186 52.394 63.705 83.977 22.813 28.249 42.517 52.64 46.878 61.348 1.314 2.65 13.433 39.496 13.433 46.952 0 5.823 7.917 27.2 10.518 34.223l.791 2.155c1.754 4.815 12.882 30.208 14.909 33.457l.901 1.447c2.813 4.517 11.359 18.261 13.794 19.306 1.231.526 2.37.596 3.196.199.76-.344 1.309-1.097 1.643-2.228.12-3.157-11.041-40.417-12.748-44.979l5.362 6.668c1.722 5.893 6.022 17.003 6.022 17.003.929 3.252 9.915 25.733 16.029 34.472 1.08 1.533 3.894 4.045 9.682 2.56 3.208-.819 2.599-13.594 2.599-13.594.948 3.181 4.682 12.4 9.307 13.01 2.92.407 5.614-.405 7.407-2.168 1.535-1.521 2.229-3.598 1.953-5.845-.533-4.361-3.565-14.908-3.595-15.014 0 0 7.253 3.485 9.599 2.964 1.998-.468 4.033-2.67 4.033-5.983 0-6.894-12.752-38.657-17.553-50.614l-1.048-2.607c-4.358-10.899-11.255-32.31-11.86-34.192-3.493-2.15-4.484-7.666-4.484-7.666 3.346 3.768 28.358 17.488 37.405 18.356 8.545.819 11.06-1.628 14.726-7.389.353-.556.44-1.111.278-1.786"/><path fill="#cec9c9" d="M205.286 450.309c-1.041 48.813-27.436 77.291-19.87 132.854-.024-32.804 34.858-49.442 19.87-132.854M133.939 423.49c-1.569-6.374 7.063 67.417 6.879 74.022-.18 6.598 20.899 12.423 26.504 19.731.739-5.354-3.806-19.424-4.954-24.451-1.152-5.016-20.693-37.764-28.429-69.302M193.762 464.275c.122-9.26-7.833-12.279-16.689-12.401-8.854-.11-15.255 2.716-15.378 11.972-.1 7.775 16.478 47.885 19.456 43.548 2.733-3.982 8.736-23.303 10.352-33.188 1.386-3.499 2.215-7.039 2.259-9.931M292.464 450.309c1.04 48.813 27.429 77.291 19.865 132.854.028-32.804-34.854-49.442-19.865-132.854M363.81 423.49c1.563-6.374-7.07 67.417-6.889 74.022.183 6.598-20.896 12.423-26.498 19.731-.739-5.354 3.806-19.424 4.956-24.451 1.151-5.016 20.685-37.764 28.431-69.302M303.988 464.275c-.122-9.26 7.829-12.279 16.686-12.401 8.849-.11 15.255 2.716 15.378 11.972.1 7.775-16.48 47.885-19.451 43.548-2.737-3.982-8.744-23.303-10.352-33.188-1.392-3.499-2.224-7.039-2.261-9.931M487.052-147.446c3.896 50.53 15.63 54.222 18.245 63.336 5.438 18.997 44.012 68.176 55.154 83.929 12.939 18.305 27.071 53.606 31.36 54.32 4.29.725-25.043-58.268-27.188-63.834-8.979-23.248-28.431-114.318-77.571-137.751M490.169-57.21c29.088 2.43 92.688 108.787 93.726 116.83-12.999-17.17-56.34-65.56-59.902-70.11-7.171-9.17-27.746-36.708-33.824-46.72M471.538-59.031s.367.53 1.044 1.518c.729.937 1.518 2.583 2.929 4.239a148 148 0 0 1 4.655 6.133c1.636 2.388 4.044 4.918 6.197 7.896 4.322 6.009 9.992 12.43 15.504 19.82 2.638 3.82 5.791 7.334 8.684 11.239 3.015 3.77 5.893 7.833 9.111 11.489 6.608 7.113 12.753 14.896 19.379 21.054 3.26 3.16 6.419 6.21 9.398 9.103 3 2.884 5.706 5.835 8.572 7.975 11.172 9.129 20.239 17.915 20.239 17.915.176.113.227.364.141.56-.104.179-1.325-.104-.5.134 0 0-9.497-8.144-21.311-16.303-3.043-1.915-5.945-4.618-9.176-7.26-3.169-2.712-6.533-5.568-9.999-8.522-7.032-5.814-13.612-13.236-20.71-20.042-3.507-3.454-6.677-7.3-9.991-10.88-3.229-3.67-6.539-7.143-9.384-10.911-5.622-7.561-10.621-14.84-14.435-21.495-3.878-6.47-6.846-12.53-8.636-16.676-1.738-4.132-2.359-6.651-2.359-6.651-.055-.221.063-.445.242-.498.151-.056.315.034.406.163M10.692-147.446C6.796-96.916-4.935-93.224-7.554-84.11-12.986-65.113-51.565-15.934-62.705-.181c-12.94 18.305-27.07 53.606-31.36 54.32-4.287.725 25.037-58.268 27.189-63.834 8.978-23.248 28.433-114.318 77.568-137.751M7.583-57.21C-21.511-54.78-85.112 51.577-86.144 59.62c12.998-17.17 56.336-65.56 59.896-70.11 7.177-9.17 27.751-36.708 33.831-46.72M26.206-59.031l-1.038 1.518c-.737.937-1.517 2.583-2.93 4.239a150 150 0 0 0-4.663 6.133c-1.636 2.388-4.047 4.918-6.194 7.896-4.324 6.009-9.993 12.43-15.502 19.82-2.64 3.82-5.796 7.334-8.686 11.239-3.012 3.77-5.89 7.833-9.113 11.489-6.606 7.113-12.75 14.896-19.375 21.054-3.26 3.16-6.415 6.21-9.4 9.103-3.002 2.884-5.704 5.835-8.573 7.975-11.17 9.129-20.24 17.915-20.24 17.915-.174.113-.23.364-.138.56.099.179 1.324-.104.499.134 0 0 9.497-8.144 21.308-16.303 3.053-1.915 5.95-4.618 9.174-7.26 3.174-2.712 6.535-5.568 10.002-8.522 7.032-5.814 13.617-13.236 20.705-20.042 3.52-3.454 6.68-7.3 9.99-10.88 3.24-3.67 6.55-7.143 9.386-10.911C7.05-21.435 12.05-28.714 15.862-35.37c3.878-6.47 6.846-12.53 8.636-16.676 1.74-4.132 2.36-6.651 2.36-6.651.052-.221-.061-.445-.252-.498-.144-.056-.305.034-.4.163M287.145-66.396c-6.638 5.308-18.216 9.476-20.409 19.679-2.183 10.203-3.637 108.589-3.637 115.88 0 7.285 5.1 13.849 13.847 13.849 8.74 0 17.492-21.872 21.133-33.527 3.649-11.664 11.666-46.646 13.12-56.844 1.459-10.205 13.116-57.574 6.56-61.947-6.561-4.377-23.321-2.916-30.614 2.91M335.58-94.087c-.524 8.72-4.57 96.925-6.289 104.21-1.706 7.295 1.719 12.388 5.72 11.662 4.001-.73 23.802-5.667 24.936-13.688 1.149-8.01-1.256-57.148-1.256-66.628 0-9.472.58-55.359-2.28-57.549-2.861-2.188-20.26 12.52-20.831 21.993M211.591-66.396c6.648 5.308 18.223 9.476 20.413 19.679 2.187 10.203 3.645 108.589 3.645 115.88 0 7.285-5.108 13.849-13.848 13.849-8.747 0-17.495-21.872-21.14-33.527C197.02 37.82 189.004 2.839 187.549-7.36c-1.455-10.205-13.12-57.574-6.562-61.947 6.562-4.377 23.319-2.916 30.604 2.91M162.171-94.087c.518 8.72 4.563 96.925 6.28 104.21 1.714 7.295-1.718 12.388-5.713 11.662-4.001-.73-23.8-5.667-24.946-13.688-1.142-8.01 1.258-57.148 1.258-66.628 0-9.472-.573-55.359 2.282-57.549 2.86-2.188 20.262 12.52 20.839 21.993"/><path fill="#283fd7" d="M256.479 108.715c-2.874 5.94 2.65 90.344 12.425 112.077 9.756 21.733 6.341-16.117 7.692-24.157 1.35-8.027 12.834-21.303 7.607-30.71-5.222-9.408-27.014-58.679-27.724-57.21M299.069 74.794c-4.091 4.218-30.777 26.951-30.245 30.838.812 5.826 16.627 44.242 22.508 47.808 5.871 3.564 4.736-22.465 10.302-36.748 5.947-15.263 41.389-77.022 41.364-79.092-.017-1.583-28.064 20.862-43.929 37.194"/><path fill="#283fd7" d="M359.608 30.995c5.963 64.789-75.532 223.174-84.05 289.985-4.565-194.062 71.003-228.363 84.05-289.985M330.372 182.902c8.215-17.026 46.115-150.567 47.052-146.426 33.35 147.991-40.934 293.813-45.048 312.824-4.125 18.997-1.709 75.57-2.367 80.682-.667 5.119-9.418 4.489-12.396.162-2.968-4.329-24.061-170.971 12.759-247.242"/><path fill="#283fd7" d="M389.297 160.263c-8.668 55.692-40.211 170.796-44.896 193.154-4.133 19.69-3.698 58.935-3.56 69.133.132 10.203 2.416 17.454 6.061 17.408 1.908-.021 32.315-75.923 36.456-101.104 17.045-52.019 10.004-127.269 5.939-178.591M298.762 265.086c5.787-3.398.378 74.204 1.237 84.395.868 10.191 17.201 98.453-2.514 95.805-19.716-2.659-17.121-64.007-17.361-82.219-.233-18.225 13.574-94.994 18.638-97.981M241.27 108.715c2.871 5.94-2.661 90.344-12.42 112.077-9.771 21.733-6.346-16.117-7.701-24.157-1.35-8.027-12.834-21.303-7.608-30.71 5.232-9.408 27.016-58.679 27.729-57.21M198.673 74.794c4.1 4.218 30.776 26.951 30.244 30.838-.811 5.826-16.624 44.242-22.502 47.808-5.881 3.564-4.735-22.465-10.308-36.748-5.948-15.263-41.393-77.022-41.357-79.092.02-1.583 28.067 20.862 43.923 37.194"/><path fill="#283fd7" d="M138.135 30.995c-5.96 64.789 75.53 223.174 84.056 289.985 4.562-194.062-71.001-228.363-84.056-289.985M167.378 182.902c-8.215-17.026-46.114-150.567-47.051-146.426-33.352 147.991 40.93 293.813 45.046 312.824 4.127 18.997 1.71 75.57 2.37 80.682.655 5.119 9.413 4.489 12.388.162 2.97-4.329 24.067-170.971-12.753-247.242"/><path fill="#283fd7" d="M108.445 160.263c8.668 55.692 40.217 170.796 44.902 193.154 4.134 19.69 3.691 58.935 3.563 69.133-.138 10.203-2.417 17.454-6.063 17.408-1.913-.021-32.313-75.923-36.46-101.104-17.044-52.019-10.004-127.269-5.942-178.591M198.985 265.086c-5.794-3.398-.382 74.204-1.245 84.395-.865 10.191-17.193 98.453 2.518 95.805 19.713-2.659 17.124-64.007 17.357-82.219.241-18.225-13.569-94.994-18.63-97.981"/></g><defs><clipPath id="a"><path fill="#fff" d="M-205-710h906.567V993.69H-205z"/></clipPath></defs></svg>