<svg xmlns="http://www.w3.org/2000/svg" width="256" height="256" fill="none" viewBox="0 0 256 256"><g clip-path="url(#a)"><path fill="#9a8b8b" d="M581.488 529.864c-1.16-4.888-13.513-12.257-24.403-18.76-9.698-5.79-19.73-11.777-25-17.423-12.167-13.021-30.248-14.481-30.429-14.494l-.696-.048-.492-.506c-34.646-36.121-46.663-75.394-57.272-110.041-2.672-8.73-5.192-16.975-7.995-24.907-14.14-40.175-32.25-62.5-44.228-77.278-7.448-9.176-12.371-15.25-12.509-21.035-1.361-57.006-15.063-97.857-21.65-117.493-2.447-7.307-3.931-11.719-3.931-14.097 0-3.526.167-13.773.359-25.488.265-15.834.552-33.771.552-42.117 0-13.894-14.322-39.971-34.883-55.17-14.954-11.046-40.451-15.58-59.072-18.89-7.199-1.286-13.43-2.387-17.979-3.656-15.718-4.361-56.746-37.142-57.953-44.395-.446-2.651-.683-12.151-.809-22.91-8.818 5.954-23.4 12.656-27.344 13.439-4.773.958-19.903 5.352-26.563 6.14l-.003.169c-.234 0-.615-.07-.901-.082-.279.013-.667.082-.897.082v-.17c-6.664-.787-21.793-5.18-26.568-6.14-3.438-.684-14.991-5.881-23.731-11.16-.132 9.8-.365 18.177-.771 20.63-1.132 6.76-45.362 39.887-61.608 44.396-4.559 1.269-10.781 2.37-17.987 3.657-18.612 3.31-44.113 7.843-59.07 18.889-20.557 15.2-34.885 41.276-34.885 55.17 0 8.346.293 26.282.556 42.117.189 11.714.363 21.961.363 25.488 0 2.377-1.485 6.79-3.935 14.097-6.585 19.636-20.293 60.487-21.649 117.493-.134 5.785-5.057 11.859-12.509 21.035-11.982 14.777-30.086 37.104-44.232 77.277-2.794 7.934-5.317 16.178-7.99 24.908-10.607 34.647-22.631 73.92-57.273 110.041l-.486.506-.7.048c-.182.013-18.303 1.508-30.433 14.494-5.267 5.646-15.299 11.633-25.001 17.423-10.889 6.503-23.242 13.873-24.404 18.76-.16.675-.073 1.229.282 1.789 3.665 5.761 6.179 8.192 14.728 7.389 9.046-.868 34.059-14.589 37.406-18.357 0 0-1.058 2.243-4.49 7.666-.603 1.884-7.5 23.293-11.862 34.193l-1.046 2.607c-4.798 11.957-17.55 43.722-17.55 50.613 0 3.314 2.036 5.518 4.041 5.984 2.329.521 9.594-2.964 9.594-2.964-.033.104-3.066 10.651-3.599 15.014-.273 2.247.421 4.324 1.956 5.845 1.792 1.763 4.499 2.574 7.406 2.168 4.625-.608 8.982-11.564 9.928-14.735 0 0-1.828 13.81 1.979 15.319 5.55 2.203 8.606-1.025 9.682-2.56 6.115-8.737 15.098-31.22 16.028-34.472l.401-1.135c3.534-12.189 10.982-22.536 10.982-22.536-1.708 4.563-12.862 41.82-12.702 45.188.288.92.839 1.673 1.594 2.018.832.396 1.972.327 3.198-.199 2.437-1.045 10.989-14.789 13.797-19.306l.906-1.447c2.027-3.25 13.152-28.643 14.907-33.457l.789-2.155c2.601-7.021 10.516-28.398 10.516-34.223 0-7.456 12.117-44.3 13.44-46.952 4.356-8.707 24.058-33.099 46.877-61.349 25.51-31.582 54.434-67.391 63.701-83.976 14.076-25.188 17.555-49.811 19.231-61.651.243-1.74.459-3.232.659-4.446.337-2.041 2.08-5.146 4.974-10.293 5.9-10.507 15.782-28.102 23.854-54.792 8.745-28.938 8.079-42.178 7.979-27.364l.252 1.515c.444 14.641 28.329 71.963 38.733 89.705 3.622 6.18 1.141 79.164-1.027 87.846-.732 2.941-2.725 9.301-5.239 17.347-5.646 18.094-14.193 45.431-14.193 52.855 0 10.014-7.086 77.609-8.621 82.193-1.257 5.535-5.208 141.333-4.784 165.033.952 53.019 10.164 109.257 18.159 130.953 8.6 23.341 10.923 50.592 11.077 56.612.191 7.525 2.298 16.426 3.839 22.925.955 4.023 1.643 6.934 1.643 8.485 0 1.117-.928 6.19-3.027 17.578-4.636 25.112-13.272 71.872-12.203 84.896 4.682 57.1 15.747 88.58 24.638 113.87 2.574 7.33 5.006 14.25 6.968 20.97 8.724 29.93 24.434 111.57 24.434 121.1 0 1.54.018 3.29.027 5.16.126 13.84.039 23.85-2.314 26.5-5.953 5.41-5.452 19.19-3.972 22.38l.149.51c.771 5.41-4.174 14.85-11.5 21.97-3.794 3.7-6.187 9.24-8.711 15.11-4.614 10.72-9.849 22.87-25.245 30.59-1.048.52-1.769 1.67-2.126 3.4-.847 4.06.628 9.92 2.409 12.07 4.523 2.64 78.539 4.46 90.619.65 9.645-3.06 9.87-27.64 7.289-40.54-2.476-12.37-5.518-34.4-5.518-39.94l.166-.76c2.794-6.16 1.974-18.33-1.841-27.14l-.184-.4.036-.46c.144-2 .369-8.83.69-18.29 1.023-30.11 2.932-86.16 5.763-96.56 3.512-12.87 15.209-93.2 11.511-138.83-.462-5.6-6.224-38.931-11.804-71.157-5.205-30.08-10.126-58.501-10.426-62.693-.229-3.213-.15-7.059-.051-11.944.105-5 .234-11.226.047-18.745 0-2.578 1.852-15.483 5.125-38.069 4.585-31.646 10.863-74.971 10.863-86.219 0-11.69 5.455-56.923 9.438-89.938 2.204-18.247 4.109-34.008 4.109-36.128 0-4.323 8.788-45.593 8.788-45.593s8.914 41.479 8.914 45.593c0 2.12 1.908 17.881 4.108 36.128 3.986 33.017 9.443 78.248 9.443 89.938 0 11.248 6.272 54.57 10.858 86.219 3.276 22.586 5.121 35.491 5.121 38.026-.182 7.563-.055 13.788.045 18.788.102 4.887.18 8.731-.045 11.944-.305 4.192-5.216 32.613-10.427 62.693-5.58 32.228-11.344 65.557-11.798 71.157-3.703 45.63 7.999 125.96 11.51 138.83 2.833 10.4 4.735 66.45 5.759 96.56.32 9.46.55 16.29.69 18.29l.036.46-.18.4c-3.814 8.81-4.639 20.98-1.844 27.14l.166.76c0 5.54-3.044 27.57-5.514 39.94-2.583 12.9-2.359 37.48 7.284 40.54 12.083 3.81 86.096 2 90.812-.84 1.589-1.96 3.066-7.82 2.216-11.88-.36-1.73-1.072-2.88-2.121-3.4-15.404-7.72-20.633-19.87-25.247-30.59-2.527-5.87-4.919-11.42-8.714-15.11-7.329-7.12-12.271-16.57-11.497-21.98l.151-.5c1.477-3.2 1.978-16.97-3.835-22.24-2.496-2.79-2.586-12.8-2.457-26.64.015-1.87.029-3.62.029-5.16 0-9.53 15.709-91.18 24.432-121.1 1.962-6.72 4.396-13.64 6.971-20.97 8.888-25.29 19.956-56.77 24.635-113.87 1.066-13.026-7.563-59.786-12.203-84.898-2.097-11.388-3.027-16.461-3.027-17.578 0-1.553.69-4.462 1.643-8.485 1.544-6.499 3.646-15.398 3.839-22.926.159-6.021 2.479-33.271 11.074-56.611 7.999-21.696 17.21-77.936 18.162-130.953.424-23.7-3.526-159.498-4.806-165.112-1.513-4.505-8.6-72.101-8.6-82.114 0-7.425-8.542-34.763-14.197-52.855-2.511-8.046-4.497-14.405-5.231-17.346-2.172-8.684-4.649-81.667-1.027-87.847 10.398-17.741 37.638-76.152 38.082-90.792l.043-.451c-.085-14.803-.764-1.549 7.985 27.388 8.069 26.69 17.953 44.286 23.854 54.792 2.889 5.146 4.639 8.252 4.978 10.293.202 1.214.415 2.706.659 4.447 1.67 11.84 5.157 36.461 19.228 61.65 9.273 16.585 38.186 52.394 63.705 83.977 22.813 28.249 42.517 52.641 46.878 61.348 1.314 2.651 13.433 39.496 13.433 46.952 0 5.823 7.917 27.2 10.518 34.223l.791 2.155c1.754 4.815 12.882 30.208 14.909 33.457l.901 1.447c2.813 4.517 11.359 18.261 13.794 19.306 1.231.526 2.37.596 3.196.199.76-.344 1.309-1.097 1.643-2.228.12-3.157-11.041-40.417-12.748-44.979l5.362 6.668c1.722 5.893 6.022 17.003 6.022 17.003.929 3.252 9.915 25.733 16.029 34.472 1.08 1.533 3.894 4.045 9.682 2.56 3.208-.819 2.599-13.594 2.599-13.594.948 3.181 4.682 12.4 9.307 13.01 2.92.407 5.614-.405 7.407-2.168 1.535-1.521 2.229-3.598 1.953-5.845-.533-4.361-3.565-14.908-3.595-15.014 0 0 7.253 3.485 9.599 2.964 1.998-.468 4.033-2.67 4.033-5.983 0-6.894-12.752-38.657-17.553-50.614l-1.048-2.607c-4.358-10.899-11.255-32.31-11.86-34.192-3.493-2.15-4.484-7.666-4.484-7.666 3.346 3.768 28.358 17.488 37.405 18.356 8.545.819 11.06-1.628 14.726-7.389.353-.556.44-1.111.278-1.786"/><path fill="#cec9c9" d="M173.339-87.345c4.372 0 1.479 27.68.75 32.778-.729 5.1-32.794 64.13-34.984 68.506-2.19 4.375-5.833-26.236-2.19-32.066 3.644-5.834 33.51-69.218 36.424-69.218M83.244-87.345c-4.376 0-1.477 27.68-.75 32.778.728 5.1 32.798 64.13 34.984 68.506 2.188 4.375 5.833-26.236 2.188-32.066-3.643-5.834-33.505-69.218-36.422-69.218M137.804 24.529c3.829-2.625 34.303-34.678 77.552-14.821 41.643 19.114 63.618 91.457 63.083 93.113-.728 2.249-72.129 43.242-107.112 43.242-20.42 0-35.715-11.255-35.715-17.257-.001-6-2.184-101.275 2.192-104.277M118.566 24.529c-3.829-2.625-34.303-34.678-77.548-14.821C-.628 28.822-22.6 101.165-22.062 102.82c.727 2.249 72.124 43.242 107.105 43.242 20.425 0 35.713-11.255 35.713-17.257 0-6 2.189-101.275-2.19-104.277M144.553 156.501c-8.787 1.402-1.455 29.147-.729 32.795.729 3.64 47.372 3.64 55.385 18.219 8.025 14.574 2.193-16.04 2.193-21.865.002-5.833-20.407-34.982-56.849-29.149M142.367 208.972c-4.26 1 0 36.44 2.918 48.1.788 3.159 50.285-3.645 53.927 6.559 3.648-10.203 4.375-18.218 4.375-24.045 0-5.839-24.049-39.357-61.22-30.614M226.048 250.562s-2.186 23.321.728 26.238c2.92 2.918 22.599-13.848 24.053-18.219 1.459-4.371 11.204-42.159 5.374-34.876-5.827 7.291-10.473 19.574-30.155 26.857M229.099 206.783c-.728 5.835-3.648 24.777 0 25.504 3.641.733 21.875-25.283 24.062-31.109 2.189-5.832.969-10.594-1.219-9.134-2.185 1.456-22.116 8.912-22.843 14.739M223.924 171.637c-1.949 3.917-5.764 23.485 2.988 22.028 8.74-1.461 27.615-22.392 26.558-29.03-1.217-7.617-28.084 4.09-29.546 7.002M211.82 143.177c-4.202 4.13 3.706 18.955 8.485 17.533 4.23-1.254 36.208-18.914 34.075-27.438-1.836-7.332-41.617 8.978-42.56 9.905M32.785 250.562s2.188 23.321-.727 26.238c-2.914 2.918-22.595-13.848-24.056-18.219C6.545 254.21-3.2 216.422 2.63 223.705c5.832 7.291 10.477 19.574 30.155 26.857M29.734 206.783c.735 5.835 3.652 24.777 0 25.504-3.64.733-21.87-25.283-24.056-31.109-2.19-5.832-.971-10.594 1.217-9.134 2.19 1.456 22.112 8.912 22.839 14.739M34.906 171.637c1.956 3.917 5.768 23.485-2.977 22.028-8.745-1.461-27.616-22.392-26.56-29.03 1.22-7.617 28.083 4.09 29.537 7.002M47.014 143.177c4.21 4.13-3.7 18.955-8.48 17.533-4.23-1.254-36.205-18.914-34.074-27.438 1.831-7.332 41.607 8.978 42.554 9.905M114.191 156.501c8.788 1.402 1.458 29.147.73 32.795-.73 3.64-47.372 3.64-55.39 18.219-8.02 14.574-2.192-16.04-2.192-21.865 0-5.833 20.41-34.982 56.852-29.149M116.377 208.972c4.257 1 0 36.44-2.913 48.1-.797 3.159-50.29-3.645-53.932 6.559-3.646-10.203-4.375-18.218-4.375-24.045 0-5.839 24.055-39.357 61.22-30.614M245.132-6.04c31.335 4.374 85.27 61.949 89.646 101.3-43.729-.727-88.191-62.67-89.646-101.3"/><path fill="#cec9c9" d="M13.607-6.04C-17.725-1.665-71.659 55.91-76.03 95.26c43.732-.727 88.184-62.67 89.637-101.3"/><path fill="#283fd7" d="M209.007 155.949h28.857a4.87 4.87 0 1 1 0 4.838h-32.36zM50.455 160.787h-32.36A4.87 4.87 0 0 1 9 158.368a4.87 4.87 0 0 1 9.093-2.419h28.858zM101.457 160.787H50.456l.249.323c20.811 26.882 53.227 42.436 77.274 67.89 24.141-25.555 56.719-41.132 77.525-68.213h-46.94a2.42 2.42 0 0 1-2.091-1.2l-2.424-4.162-10.927 27.638a2.42 2.42 0 0 1-4.618-.388l-11.599-54.609-8.545 39.287a2.42 2.42 0 0 1-2.133 1.895 2.41 2.41 0 0 1-2.454-1.451l-6.752-15.665-3.316 7.135a2.42 2.42 0 0 1-2.248 1.52"/><path fill="#283fd7" d="M36.205 134.907c2.8 7.796 6.455 14.732 10.748 21.042H99.82l4.871-11.025a2.42 2.42 0 0 1 2.215-1.522h.033c.965 0 1.839.573 2.221 1.462l6.072 14.091 9.335-42.921a2.42 2.42 0 0 1 2.365-1.904h.007a2.42 2.42 0 0 1 2.36 1.916l12.272 57.773 9.809-24.812a2.421 2.421 0 0 1 4.343-.327l4.232 7.269h49.051c4.293-6.311 7.948-13.248 10.749-21.042 5.383-14.987 4.364-32.326-3.309-46.347-10.378-18.968-34.918-29.493-56.397-24.19-13.851 3.42-25.568 13.21-32.07 25.489-6.502-12.279-18.218-22.07-32.072-25.49-21.477-5.302-46.018 5.223-56.396 24.19-7.671 14.022-8.69 31.361-3.306 46.348"/></g><defs><clipPath id="a"><path fill="#fff" d="M-325-302h906.567v1703.69H-325z"/></clipPath></defs></svg>