<svg xmlns="http://www.w3.org/2000/svg" width="600" height="600" fill="none" viewBox="0 0 600 600"><g clip-path="url(#a)"><path fill="#9a8b8b" d="M753.488 619.864c-1.16-4.888-13.513-12.257-24.403-18.76-9.698-5.79-19.73-11.777-25-17.423-12.167-13.021-30.248-14.481-30.429-14.494l-.696-.048-.492-.506c-34.646-36.121-46.663-75.394-57.272-110.041-2.672-8.73-5.192-16.975-7.995-24.907-14.14-40.175-32.25-62.5-44.228-77.278-7.448-9.176-12.371-15.25-12.509-21.035-1.361-57.006-15.063-97.857-21.65-117.493-2.447-7.307-3.931-11.719-3.931-14.097 0-3.526.167-13.773.359-25.488.265-15.834.552-33.771.552-42.117 0-13.894-14.322-39.971-34.883-55.17-14.954-11.046-40.451-15.58-59.072-18.89-7.199-1.286-13.43-2.387-17.979-3.656-15.718-4.361-56.746-37.142-57.953-44.395-.446-2.651-.683-12.151-.809-22.91-8.818 5.954-23.4 12.656-27.344 13.439-4.773.958-19.903 5.352-26.563 6.14l-.003.169c-.234 0-.615-.07-.901-.082-.279.013-.667.082-.897.082v-.17c-6.664-.787-21.793-5.18-26.568-6.14-3.438-.684-14.991-5.881-23.731-11.16-.132 9.8-.365 18.177-.771 20.63-1.132 6.76-45.362 39.887-61.608 44.396-4.559 1.269-10.781 2.37-17.987 3.657-18.612 3.31-44.113 7.843-59.07 18.889-20.557 15.2-34.885 41.276-34.885 55.17 0 8.346.293 26.282.556 42.117.189 11.714.363 21.961.363 25.488 0 2.377-1.485 6.79-3.935 14.097-6.585 19.636-20.293 60.487-21.649 117.493-.134 5.785-5.057 11.859-12.509 21.035C25.614 371.183 7.51 393.51-6.636 433.683c-2.794 7.934-5.317 16.178-7.99 24.908-10.607 34.647-22.631 73.92-57.273 110.041l-.486.506-.7.048c-.182.013-18.303 1.508-30.433 14.494-5.267 5.646-15.299 11.633-25.001 17.423-10.889 6.503-23.242 13.873-24.404 18.76-.16.675-.073 1.229.282 1.789 3.665 5.761 6.179 8.192 14.728 7.389 9.046-.868 34.059-14.589 37.406-18.357 0 0-1.058 2.243-4.49 7.666-.603 1.884-7.5 23.293-11.862 34.193l-1.046 2.607c-4.798 11.957-17.55 43.722-17.55 50.613 0 3.314 2.036 5.518 4.041 5.984 2.329.521 9.594-2.964 9.594-2.964-.033.104-3.066 10.651-3.599 15.014-.273 2.247.421 4.324 1.956 5.845 1.792 1.763 4.499 2.574 7.406 2.168 4.625-.608 8.982-11.564 9.928-14.735 0 0-1.828 13.81 1.979 15.319 5.55 2.203 8.606-1.025 9.682-2.56 6.115-8.737 15.098-31.22 16.028-34.472l.401-1.135c3.534-12.189 10.982-22.536 10.982-22.536-1.708 4.563-12.862 41.82-12.702 45.188.288.92.839 1.673 1.594 2.018.832.396 1.972.327 3.198-.199 2.437-1.045 10.989-14.789 13.797-19.306l.906-1.447c2.027-3.25 13.152-28.643 14.907-33.457l.789-2.155c2.601-7.021 10.516-28.398 10.516-34.223 0-7.456 12.117-44.3 13.44-46.952 4.356-8.707 24.058-33.099 46.877-61.349 25.51-31.582 54.434-67.391 63.701-83.976 14.076-25.188 17.555-49.811 19.231-61.651.243-1.74.459-3.232.659-4.446.337-2.041 2.08-5.146 4.974-10.293 5.9-10.507 15.782-28.102 23.854-54.792 8.745-28.938 8.079-42.178 7.979-27.364l.252 1.515c.444 14.641 28.329 71.963 38.733 89.705 3.622 6.18 1.141 79.164-1.027 87.846-.732 2.941-2.725 9.301-5.239 17.347-5.646 18.094-14.193 45.431-14.193 52.855 0 10.014-7.086 77.609-8.621 82.193-1.257 5.535-5.208 141.333-4.784 165.033.952 53.019 10.164 109.257 18.159 130.953 8.6 23.341 10.923 50.592 11.077 56.612.191 7.525 2.298 16.426 3.839 22.925.955 4.023 1.643 6.934 1.643 8.485 0 1.117-.928 6.19-3.027 17.574-4.636 25.12-13.272 71.88-12.203 84.9 4.682 57.1 15.747 88.58 24.638 113.87 2.574 7.33 5.006 14.25 6.968 20.97 8.724 29.93 24.434 111.57 24.434 121.1 0 1.54.018 3.29.027 5.16.126 13.84.039 23.85-2.314 26.5-5.953 5.41-5.452 19.19-3.972 22.38l.149.51c.771 5.41-4.174 14.85-11.5 21.97-3.794 3.7-6.187 9.24-8.711 15.11-4.614 10.72-9.849 22.87-25.245 30.59-1.048.52-1.769 1.67-2.126 3.4-.847 4.06.628 9.92 2.409 12.07 4.523 2.64 78.539 4.46 90.619.65 9.645-3.06 9.87-27.64 7.289-40.54-2.476-12.37-5.518-34.4-5.518-39.94l.166-.76c2.794-6.16 1.974-18.33-1.841-27.14l-.184-.4.036-.46c.144-2 .369-8.83.69-18.29 1.023-30.11 2.932-86.16 5.763-96.56 3.512-12.87 15.209-93.2 11.511-138.83-.462-5.6-6.224-38.93-11.804-71.16-5.205-30.08-10.126-58.498-10.426-62.69-.229-3.213-.15-7.059-.051-11.944.105-5 .234-11.226.047-18.745 0-2.578 1.852-15.483 5.125-38.069 4.585-31.646 10.863-74.971 10.863-86.219 0-11.69 5.455-56.923 9.438-89.938 2.204-18.247 4.109-34.008 4.109-36.128 0-4.323 8.788-45.593 8.788-45.593s8.914 41.479 8.914 45.593c0 2.12 1.908 17.881 4.108 36.128 3.986 33.017 9.443 78.248 9.443 89.938 0 11.248 6.272 54.57 10.858 86.219 3.276 22.586 5.121 35.491 5.121 38.026-.182 7.563-.055 13.788.045 18.788.102 4.887.18 8.731-.045 11.944-.305 4.192-5.216 32.61-10.427 62.69-5.58 32.23-11.344 65.56-11.798 71.16-3.703 45.63 7.999 125.96 11.51 138.83 2.833 10.4 4.735 66.45 5.759 96.56.32 9.46.55 16.29.69 18.29l.036.46-.18.4c-3.814 8.81-4.639 20.98-1.844 27.14l.166.76c0 5.54-3.044 27.57-5.514 39.94-2.583 12.9-2.359 37.48 7.284 40.54 12.083 3.81 86.096 2 90.812-.84 1.589-1.96 3.066-7.82 2.216-11.88-.36-1.73-1.072-2.88-2.121-3.4-15.404-7.72-20.633-19.87-25.247-30.59-2.527-5.87-4.919-11.42-8.714-15.11-7.329-7.12-12.271-16.57-11.497-21.98l.151-.5c1.477-3.2 1.978-16.97-3.835-22.24-2.496-2.79-2.586-12.8-2.457-26.64.015-1.87.029-3.62.029-5.16 0-9.53 15.709-91.18 24.432-121.1 1.962-6.72 4.396-13.64 6.971-20.97 8.888-25.29 19.956-56.77 24.635-113.87 1.066-13.03-7.563-59.79-12.203-84.9-2.097-11.386-3.027-16.459-3.027-17.576 0-1.553.69-4.462 1.643-8.485 1.544-6.499 3.646-15.398 3.839-22.926.159-6.021 2.479-33.271 11.074-56.611 7.999-21.696 17.21-77.936 18.162-130.953.424-23.7-3.526-159.498-4.806-165.112-1.513-4.505-8.6-72.101-8.6-82.114 0-7.425-8.542-34.763-14.197-52.855-2.511-8.046-4.497-14.405-5.231-17.346-2.172-8.684-4.649-81.667-1.027-87.847 10.398-17.741 37.638-76.152 38.082-90.792l.043-.451c-.085-14.803-.764-1.549 7.985 27.388 8.069 26.69 17.953 44.286 23.854 54.792 2.889 5.146 4.639 8.252 4.978 10.293.202 1.214.415 2.706.659 4.447 1.67 11.84 5.157 36.461 19.228 61.65 9.273 16.585 38.186 52.394 63.705 83.977 22.813 28.249 42.517 52.641 46.878 61.348 1.314 2.651 13.433 39.496 13.433 46.952 0 5.823 7.917 27.2 10.518 34.223l.791 2.155c1.754 4.815 12.882 30.208 14.909 33.457l.901 1.447c2.813 4.517 11.359 18.261 13.794 19.306 1.231.526 2.37.596 3.196.199.76-.344 1.309-1.097 1.643-2.228.12-3.157-11.041-40.417-12.748-44.979l5.362 6.668c1.722 5.893 6.022 17.003 6.022 17.003.929 3.252 9.915 25.733 16.029 34.472 1.08 1.533 3.894 4.045 9.682 2.56 3.208-.819 2.599-13.594 2.599-13.594.948 3.181 4.682 12.4 9.307 13.01 2.92.407 5.614-.405 7.407-2.168 1.535-1.521 2.229-3.598 1.953-5.845-.533-4.361-3.565-14.908-3.595-15.014 0 0 7.253 3.485 9.599 2.964 1.998-.468 4.033-2.67 4.033-5.983 0-6.894-12.752-38.657-17.553-50.614l-1.048-2.607c-4.358-10.899-11.255-32.31-11.86-34.192-3.493-2.15-4.484-7.666-4.484-7.666 3.346 3.768 28.358 17.488 37.405 18.356 8.545.819 11.06-1.628 14.726-7.389.353-.556.44-1.111.278-1.786"/><path fill="#cec9c9" d="M345.339 2.655c4.372 0 1.479 27.68.75 32.778-.729 5.1-32.794 64.13-34.984 68.506-2.19 4.375-5.833-26.236-2.19-32.066 3.644-5.834 33.51-69.218 36.424-69.218M255.244 2.655c-4.376 0-1.477 27.68-.75 32.778.728 5.1 32.798 64.13 34.984 68.506 2.188 4.375 5.833-26.236 2.188-32.066-3.643-5.834-33.505-69.218-36.422-69.218M317.663 16.733c-13.848 3.03-30.332.625-31.386.367-7.358-1.85 15.555 57.322 15.555 57.322l.173-.93.107.566s22.479-58.847 15.551-57.325M373.981-96.822c.976-6.348 1.79-12.975 2.117-19.415 1.048-21.013-6.306-44.126-10.509-52.525-4.202-8.406-21.014-32.577-40.976-39.934-10.148-3.739-18.107-3.665-24.325-2.848-6.214-.817-14.171-.891-24.312 2.848-19.973 7.356-36.774 31.527-40.988 39.934-4.202 8.399-11.556 31.512-10.504 52.525.349 6.958 1.274 14.134 2.352 20.935-4.66.974-12.202 5.229-10.963 8.778 1.686 4.882 12.128 44.242 15.748 38.745.433-.658.742-1.82.958-3.331 1.182 13.525 3.623 32.315 6.613 36.799 4.202 6.3 28.378 17.863 33.628 18.907 4.775.958 19.904 5.352 26.568 6.14v.169c.231 0 .619-.07.897-.082.286.013.667.082.901.082l.003-.17c6.659-.787 21.79-5.18 26.563-6.14 5.263-1.043 29.429-12.605 33.631-18.906 3.067-4.595 5.563-24.258 6.697-37.84.213 1.249.498 2.219.876 2.795 3.619 5.495 14.063-33.861 15.748-38.741 1.218-3.495-6.045-7.655-10.723-8.725M309.804 114.529c3.829-2.625 34.303-34.678 77.552-14.821 41.643 19.114 63.618 91.457 63.083 93.113-.728 2.249-72.129 43.242-107.112 43.242-20.42 0-35.715-11.255-35.715-17.257-.001-6-2.184-101.275 2.192-104.277M290.566 114.529c-3.829-2.625-34.303-34.678-77.548-14.821-41.646 19.114-63.618 91.457-63.08 93.113.727 2.249 72.124 43.242 107.105 43.242 20.425 0 35.713-11.255 35.713-17.257 0-6 2.189-101.275-2.19-104.277"/><path fill="#283fd7" d="M469.633 191.581c5.716-1.148 31.546 2.669 42.013 11.282 29.937 24.649 27.405 78.417 27.405 92.269 0 13.848 10.996 44.863-7.954 44.863-18.943 0-61.464-65.339-65.837-85.019-4.375-19.67-10.202-60.483 4.373-63.395M132.111 191.581c-5.716-1.148-31.548 2.669-42.007 11.282-29.938 24.649-27.412 78.417-27.412 92.269 0 13.848-10.996 44.863 7.949 44.863 18.957 0 61.469-65.339 65.845-85.019 4.369-19.67 10.199-60.483-4.375-63.395M75.521 362.936a2.85 2.85 0 0 0 1.612-.234c25.015-11.421 45.876-38.23 53.731-48.33l1.292-1.656c1-1.263 4.531-16.552 3.272-17.542-1.258-1.005-3.104-.778-4.097.482l-1.318 1.689c-7.607 9.787-31.591 49.227-55.301 60.057a2.913 2.913 0 0 0 .809 5.534M526.229 362.936a2.9 2.9 0 0 1-1.622-.234c-25.007-11.421-45.87-38.23-53.721-48.33l-1.297-1.656c-1-1.263-4.53-16.552-3.267-17.542 1.253-1.005 3.098-.778 4.095.482l1.307 1.689c7.617 9.787 31.603 49.227 55.31 60.057 1.462.668 2.114 2.397 1.441 3.854a2.89 2.89 0 0 1-2.246 1.68"/><path fill="#cec9c9" d="M539.052 350.554c3.896 50.53 15.63 54.222 18.245 63.336 5.438 18.997 44.012 68.176 55.154 83.929 12.939 18.305 27.071 53.606 31.36 54.32 4.29.725-25.043-58.268-27.188-63.834-8.979-23.248-28.431-114.318-77.571-137.751M511.037 374.914c4.16-.126 47.672 49.958 47.183 59.402-.501 9.444-20.061-6.588-32.233-13.019-12.182-6.43-18.496-6.818-18.283-10.871.215-4.045-2.634-35.333 3.333-35.512M542.169 440.79c29.088 2.431 92.688 108.787 93.726 116.83-12.999-17.17-56.34-65.559-59.902-70.11-7.171-9.17-27.746-36.708-33.824-46.72M523.538 438.969s.367.531 1.044 1.518c.729.937 1.518 2.583 2.929 4.239a148 148 0 0 1 4.655 6.133c1.636 2.388 4.044 4.918 6.197 7.896 4.322 6.009 9.992 12.431 15.504 19.821 2.638 3.82 5.791 7.333 8.684 11.238 3.015 3.77 5.893 7.833 9.111 11.489 6.608 7.113 12.753 14.896 19.379 21.054 3.26 3.161 6.419 6.211 9.398 9.103 3 2.884 5.706 5.835 8.572 7.975 11.172 9.129 20.239 17.915 20.239 17.915.176.113.227.364.141.56-.104.179-1.325-.104-.5.134 0 0-9.497-8.144-21.311-16.303-3.043-1.915-5.945-4.618-9.176-7.26-3.169-2.712-6.533-5.568-9.999-8.522-7.032-5.814-13.612-13.236-20.71-20.042-3.507-3.454-6.677-7.299-9.991-10.879-3.229-3.67-6.539-7.144-9.384-10.912-5.622-7.561-10.621-14.839-14.435-21.495-3.878-6.469-6.846-12.53-8.636-16.676-1.738-4.132-2.359-6.651-2.359-6.651-.055-.221.063-.445.242-.498.151-.056.315.034.406.163M62.692 350.554c-3.896 50.53-15.627 54.222-18.246 63.336-5.432 18.997-44.011 68.176-55.151 83.929-12.939 18.305-27.069 53.606-31.36 54.32-4.287.725 25.037-58.268 27.189-63.834 8.978-23.248 28.433-114.318 77.568-137.751M90.71 374.914c-4.16-.126-47.675 49.958-47.185 59.402.5 9.444 20.063-6.588 32.238-13.019 12.18-6.43 18.491-6.818 18.285-10.871-.218-4.045 2.631-35.333-3.338-35.512M59.583 440.79c-29.094 2.431-92.695 108.787-93.727 116.83 12.998-17.17 56.336-65.559 59.896-70.11 7.177-9.17 27.751-36.708 33.831-46.72M78.206 438.969l-1.038 1.518c-.737.937-1.517 2.583-2.93 4.239a150 150 0 0 0-4.663 6.133c-1.636 2.388-4.047 4.918-6.194 7.896-4.324 6.009-9.993 12.431-15.502 19.821-2.639 3.82-5.796 7.333-8.686 11.238-3.012 3.77-5.89 7.833-9.113 11.489-6.606 7.113-12.749 14.896-19.375 21.054-3.259 3.161-6.415 6.211-9.4 9.103-3.002 2.884-5.704 5.835-8.573 7.975-11.169 9.129-20.24 17.915-20.24 17.915-.174.113-.229.364-.138.56.099.179 1.324-.104.499.134 0 0 9.497-8.144 21.308-16.303 3.053-1.915 5.951-4.618 9.174-7.26 3.174-2.712 6.535-5.568 10.002-8.522 7.032-5.814 13.617-13.236 20.705-20.042 3.52-3.454 6.681-7.299 9.99-10.879 3.241-3.67 6.551-7.144 9.386-10.912 5.632-7.561 10.632-14.839 14.444-21.495 3.878-6.469 6.846-12.53 8.636-16.676 1.741-4.132 2.36-6.651 2.36-6.651.052-.221-.061-.445-.252-.498-.144-.056-.305.034-.4.163M316.553 246.501c-8.787 1.402-1.455 29.147-.729 32.795.729 3.64 47.372 3.64 55.385 18.219 8.025 14.574 2.193-16.04 2.193-21.865.002-5.833-20.407-34.982-56.849-29.149M314.367 298.972c-4.26 1 0 36.44 2.918 48.1.788 3.159 50.285-3.645 53.927 6.559 3.648-10.203 4.375-18.218 4.375-24.045 0-5.839-24.049-39.357-61.22-30.614M315.826 370.388c-3.612 3.615-1.459 46.645-.727 49.56.727 2.912 16.757-6.555 24.046-7.283 7.292-.732 32.066 1.456 34.986-2.92 2.915-4.371 4.369-26.964-1.458-34.252-5.835-7.285-43.001-18.954-56.847-5.105M339.145 431.604c-6.638 5.308-18.216 9.476-20.409 19.679-2.183 10.203-3.637 108.589-3.637 115.88 0 7.285 5.1 13.849 13.847 13.849 8.74 0 17.492-21.872 21.133-33.527 3.649-11.664 11.666-46.646 13.12-56.844 1.459-10.205 13.116-57.574 6.56-61.947-6.561-4.377-23.321-2.916-30.614 2.91M387.58 403.913c-.524 8.721-4.57 96.925-6.289 104.211-1.706 7.294 1.719 12.387 5.72 11.661 4.001-.729 23.802-5.667 24.936-13.688 1.149-8.01-1.256-57.148-1.256-66.628 0-9.472.58-55.359-2.28-57.549-2.861-2.188-20.26 12.52-20.831 21.993M398.048 340.562s-2.186 23.321.728 26.238c2.92 2.918 22.599-13.848 24.053-18.219 1.459-4.371 11.204-42.159 5.374-34.876-5.827 7.291-10.473 19.574-30.155 26.857M401.099 296.783c-.728 5.835-3.648 24.777 0 25.504 3.641.733 21.875-25.283 24.062-31.109 2.189-5.832.969-10.594-1.219-9.134-2.185 1.456-22.116 8.912-22.843 14.739M395.924 261.637c-1.949 3.917-5.764 23.485 2.988 22.028 8.74-1.461 27.615-22.392 26.558-29.03-1.217-7.617-28.084 4.09-29.546 7.002M383.82 233.177c-4.202 4.13 3.706 18.955 8.485 17.533 4.23-1.254 36.208-18.914 34.075-27.438-1.836-7.332-41.617 8.978-42.56 9.905M454.093 204.696c-7.919 9.44-20.405 46.283-20.405 53.286 0 5.832-1.124 54.857 4.265 49.025 7.497-8.109 11.858-26.083 12.789-42.631 1.381-24.454 1.22-38.672 3.351-59.68M204.785 340.562s2.188 23.321-.727 26.238c-2.914 2.918-22.595-13.848-24.056-18.219-1.457-4.371-11.202-42.159-5.372-34.876 5.832 7.291 10.477 19.574 30.155 26.857M201.734 296.783c.735 5.835 3.652 24.777 0 25.504-3.64.733-21.869-25.283-24.056-31.109-2.19-5.832-.971-10.594 1.217-9.134 2.19 1.456 22.112 8.912 22.839 14.739M206.906 261.637c1.956 3.917 5.768 23.485-2.977 22.028-8.745-1.461-27.616-22.392-26.561-29.03 1.22-7.617 28.084 4.09 29.538 7.002M219.014 233.177c4.21 4.13-3.701 18.955-8.48 17.533-4.231-1.254-36.205-18.914-34.074-27.438 1.831-7.332 41.607 8.978 42.554 9.905M148.749 204.696c7.912 9.44 20.397 46.283 20.397 53.286 0 5.832 1.128 54.857-4.26 49.025-7.499-8.109-11.864-26.083-12.792-42.631-1.381-24.454-1.218-38.672-3.345-59.68M286.191 246.501c8.788 1.402 1.458 29.147.73 32.795-.73 3.64-47.372 3.64-55.39 18.219-8.021 14.574-2.192-16.04-2.192-21.865 0-5.833 20.409-34.982 56.852-29.149M288.377 298.972c4.257 1 0 36.44-2.913 48.1-.797 3.159-50.291-3.645-53.932 6.559-3.646-10.203-4.375-18.218-4.375-24.045-.001-5.839 24.055-39.357 61.22-30.614M286.921 370.388c3.608 3.615 1.455 46.645.728 49.56-.728 2.912-16.765-6.555-24.058-7.283-7.286-.732-32.061 1.456-34.979-2.92-2.914-4.371-4.37-26.964 1.457-34.252 5.832-7.285 43.005-18.954 56.852-5.105M263.591 431.604c6.648 5.308 18.223 9.476 20.413 19.679 2.187 10.203 3.645 108.589 3.645 115.88 0 7.285-5.108 13.849-13.848 13.849-8.747 0-17.495-21.872-21.14-33.527-3.641-11.664-11.657-46.646-13.112-56.844-1.455-10.205-13.12-57.574-6.562-61.947 6.562-4.377 23.319-2.916 30.604 2.91M214.171 403.913c.518 8.721 4.563 96.925 6.28 104.211 1.714 7.294-1.718 12.387-5.713 11.661-4.001-.729-23.8-5.667-24.946-13.688-1.142-8.01 1.258-57.148 1.258-66.628 0-9.472-.573-55.359 2.282-57.549 2.86-2.188 20.262 12.52 20.839 21.993M351.069 572.794c-4.091 4.218-30.777 26.951-30.245 30.838.812 5.826 16.627 44.242 22.508 47.808 5.871 3.564 4.736-22.465 10.302-36.748 5.947-15.263 41.389-77.022 41.364-79.092-.017-1.583-28.064 20.862-43.929 37.194"/><path fill="#cec9c9" d="M411.608 528.995c5.963 64.789-75.532 223.174-84.05 289.985-4.565-194.062 71.003-228.363 84.05-289.985M382.372 680.902c8.215-17.026 46.115-150.567 47.052-146.426 33.35 147.991-40.934 293.813-45.048 312.824-4.125 18.997-1.709 75.57-2.367 80.682-.667 5.119-9.418 4.489-12.396.162-2.968-4.329-24.061-170.971 12.759-247.242M250.673 572.794c4.1 4.218 30.776 26.951 30.244 30.838-.811 5.826-16.624 44.242-22.502 47.808-5.881 3.564-4.735-22.465-10.308-36.748-5.948-15.263-41.393-77.022-41.357-79.092.02-1.583 28.067 20.862 43.923 37.194"/><path fill="#cec9c9" d="M190.135 528.995c-5.96 64.789 75.53 223.174 84.056 289.985 4.562-194.062-71.001-228.363-84.056-289.985M219.378 680.902c-8.215-17.026-46.114-150.567-47.051-146.426-33.352 147.991 40.93 293.813 45.046 312.824 4.127 18.997 1.71 75.57 2.37 80.682.655 5.119 9.413 4.489 12.388.162 2.97-4.329 24.067-170.971-12.753-247.242M354.673 38.329c9.781 0 56.848 26.966 61.95 32.066 5.104 5.103-29.148 6.558-32.065 6.558-2.913 0-26.241-20.403-29.885-26.233-3.64-5.835-5.099-12.391 0-12.391M345.93 60.94c2.788 5.572 14.579 17.49 8.017 20.409-6.559 2.912-17.489 2.185-17.489-.73s8.013-22.59 9.472-19.68M449.189 78.105c17.492.729 33.525 0 53.929 18.213 12.974 11.583 18.951 51.012 13.122 81.626-8.023-29.154-32.799-75.792-67.051-99.84"/><path fill="#cec9c9" d="M417.132 83.96c31.335 4.374 85.27 61.949 89.646 101.301-43.729-.728-88.191-62.671-89.646-101.3M153.557 78.105c-17.494.729-33.524 0-53.93 18.213-12.972 11.583-18.95 51.012-13.119 81.626 8.015-29.154 32.798-75.792 67.049-99.84"/><path fill="#cec9c9" d="M185.607 83.96c-31.332 4.374-85.266 61.949-89.637 101.301 43.732-.728 88.184-62.671 89.637-101.3M242.675 38.329c-9.774 0-56.846 26.966-61.943 32.066-5.104 5.103 29.149 6.558 32.066 6.558 2.914 0 26.238-20.403 29.877-26.233 3.649-5.835 5.111-12.391 0-12.391M251.427 60.94c-2.787 5.572-14.582 17.49-8.025 20.409 6.563 2.912 17.496 2.185 17.496-.73s-8.014-22.59-9.471-19.68"/></g><defs><clipPath id="a"><path fill="#fff" d="M-153-212h906.567v1703.69H-153z"/></clipPath></defs></svg>